<?xml version="1.0" standalone="no"?>
<!DOCTYPE svg PUBLIC "-//W3C//DTD SVG 20010904//EN"
 "http://www.w3.org/TR/2001/REC-SVG-20010904/DTD/svg10.dtd">
<svg version="1.0" xmlns="http://www.w3.org/2000/svg"
 width="325.000000pt" height="325.000000pt" viewBox="0 0 325.000000 325.000000"
 preserveAspectRatio="xMidYMid meet">
<metadata>
Created by potrace 1.14, written by Peter Selinger 2001-2017
</metadata>
<g transform="translate(0.000000,325.000000) scale(0.100000,-0.100000)"
fill="#000000" stroke="none">
<path d="M1498 3186 c-1 -2 -28 -6 -58 -10 -459 -52 -872 -310 -1127 -705
-102 -158 -187 -377 -222 -576 -27 -148 -23 -434 7 -570 113 -504 421 -893
874 -1105 74 -34 213 -84 264 -94 11 -3 39 -9 64 -15 25 -5 68 -13 95 -16 28
-3 61 -8 74 -11 31 -7 285 -7 308 0 10 3 41 7 68 10 43 5 79 12 202 41 108 25
313 121 436 203 356 238 585 588 673 1027 18 92 24 329 11 448 -18 162 -75
354 -150 505 -224 451 -629 755 -1130 848 -70 13 -378 28 -389 20z m267 -60
c33 -3 70 -8 82 -10 11 -3 43 -8 70 -11 82 -12 277 -81 385 -136 194 -100 372
-246 504 -415 35 -45 64 -84 64 -87 0 -4 12 -23 26 -44 60 -88 161 -320 179
-412 2 -9 10 -50 18 -91 29 -144 37 -300 22 -445 -28 -262 -134 -530 -294
-742 -295 -391 -740 -607 -1230 -598 -75 1 -161 7 -191 13 -30 7 -67 13 -81
16 -57 9 -188 50 -267 82 -449 185 -789 590 -892 1064 -68 310 -36 637 91 926
197 449 610 780 1084 868 164 31 272 37 430 22z"/>
<path d="M1950 2130 c-238 -335 -438 -610 -445 -610 -6 0 -155 196 -330 435
-258 353 -323 435 -340 433 -20 -3 -20 -7 -23 -694 -2 -583 0 -693 12 -703 11
-9 17 -9 27 2 12 11 14 126 14 645 0 348 3 631 6 630 4 -2 110 -142 235 -313
332 -453 354 -483 354 -500 0 -8 -66 -107 -146 -221 -85 -119 -143 -211 -140
-220 17 -43 47 -8 307 359 278 392 594 837 816 1149 130 183 147 218 103 218
-12 0 -156 -196 -450 -610z"/>
<path d="M2182 2128 c-27 -27 -6 -68 34 -68 23 0 39 24 35 50 -5 29 -47 40
-69 18z"/>
<path d="M2065 1992 c-6 -4 -105 -140 -219 -302 -115 -162 -230 -324 -256
-360 -37 -51 -329 -463 -524 -738 -30 -42 -30 -44 -12 -58 15 -10 23 -11 33
-2 7 6 62 79 120 162 59 83 190 268 292 411 663 933 615 863 601 880 -14 17
-20 18 -35 7z"/>
<path d="M2193 1978 c-5 -8 -9 -198 -9 -457 1 -409 2 -445 18 -455 13 -7 20
-8 28 0 12 12 16 896 5 914 -9 14 -31 12 -42 -2z"/>
</g>
</svg>
