<?xml version="1.0" encoding="utf-8"?>
<!DOCTYPE svg PUBLIC "-//W3C//DTD SVG 1.1//EN" "http://www.w3.org/Graphics/SVG/1.1/DTD/svg11.dtd">
<svg id="svg" version="1.1"
  xmlns="http://www.w3.org/2000/svg"
  xmlns:xlink="http://www.w3.org/1999/xlink" width="400" height="400" viewBox="0, 0, 400,400">
  <g id="svgg">
    <path id="path0" d="M140.257 2.300 C 140.844 8.073,145.634 16.367,147.918 15.567 C 149.883 14.879,153.204 7.495,154.200 1.601 L 154.470 -0.000 147.247 -0.000 L 140.023 0.000 140.257 2.300 M225.223 2.131 C 225.382 3.302,225.995 5.417,226.585 6.831 C 227.175 8.244,228.078 10.660,228.593 12.200 C 229.107 13.740,229.989 16.080,230.554 17.400 C 231.119 18.720,231.585 20.205,231.591 20.700 C 231.596 21.195,231.986 21.986,232.458 22.458 L 233.317 23.317 233.882 22.237 C 234.383 21.282,234.329 20.389,233.417 14.479 C 232.851 10.806,232.283 6.045,232.156 3.900 L 231.925 -0.000 228.430 -0.000 L 224.934 -0.000 225.223 2.131 M127.660 163.481 C 127.424 164.537,126.938 166.907,126.579 168.749 C 126.221 170.591,125.518 173.201,125.017 174.549 C 124.459 176.053,124.003 178.437,123.838 180.717 C 123.655 183.242,123.117 185.874,122.161 188.917 C 121.162 192.099,120.637 194.726,120.354 197.969 C 120.135 200.481,119.600 203.991,119.166 205.769 C 118.731 207.546,118.204 211.014,117.994 213.475 C 117.784 215.937,117.181 220.167,116.653 222.875 C 116.125 225.584,115.584 229.346,115.450 231.235 C 115.315 233.124,114.754 236.848,114.203 239.509 C 113.651 242.171,113.196 245.486,113.192 246.875 C 113.185 249.105,112.784 252.629,112.267 255.000 C 111.222 259.797,111.832 274.376,113.431 282.800 C 115.589 294.172,118.809 306.498,120.275 309.001 C 120.919 310.100,121.762 311.810,122.149 312.800 C 124.974 320.035,126.662 323.340,128.342 324.926 C 130.252 326.730,131.015 327.681,131.838 329.281 C 132.967 331.479,135.345 334.776,139.065 339.301 C 141.009 341.666,143.230 344.497,144.000 345.591 C 144.770 346.685,146.210 348.204,147.200 348.965 C 148.190 349.727,150.260 351.539,151.800 352.992 C 153.340 354.445,156.400 356.921,158.600 358.495 C 160.800 360.068,163.689 362.175,165.021 363.178 C 166.353 364.180,169.593 366.024,172.221 367.275 C 180.483 371.207,187.485 374.400,187.849 374.401 C 188.042 374.401,191.800 375.757,196.200 377.415 C 206.237 381.196,207.371 381.484,214.213 381.990 C 220.730 382.472,222.558 382.698,225.736 383.417 C 229.807 384.338,249.719 382.987,256.136 381.354 C 257.420 381.027,261.200 379.800,264.536 378.628 C 267.871 377.455,272.040 376.035,273.800 375.472 C 279.893 373.523,281.567 372.799,288.069 369.299 C 291.661 367.365,295.407 365.426,296.394 364.991 C 300.463 363.196,306.357 358.379,308.429 355.152 L 309.616 353.304 309.354 347.552 C 309.163 343.392,308.837 340.912,308.173 338.591 C 307.669 336.826,306.972 333.745,306.625 331.745 C 306.278 329.745,305.641 327.083,305.210 325.830 C 304.779 324.577,304.232 322.437,303.994 321.076 C 303.756 319.714,303.308 317.790,302.998 316.800 C 302.687 315.810,302.168 313.470,301.845 311.600 C 301.521 309.730,300.985 307.444,300.653 306.520 C 300.321 305.596,299.832 303.346,299.566 301.520 C 299.299 299.694,298.652 296.940,298.128 295.400 C 297.604 293.860,296.914 290.867,296.595 288.750 C 296.275 286.632,295.654 284.059,295.214 283.032 C 294.455 281.263,293.910 278.659,293.371 274.234 C 293.172 272.603,292.833 271.970,291.381 270.517 C 289.553 268.689,288.977 267.112,289.327 264.891 C 289.519 263.674,288.737 262.000,287.977 262.000 C 287.770 262.000,287.600 263.266,287.600 264.813 C 287.600 269.721,286.392 271.306,284.001 269.537 C 282.611 268.510,282.006 268.836,280.754 271.289 C 279.693 273.369,279.155 273.535,272.000 273.983 C 268.590 274.197,263.498 274.580,260.685 274.834 C 253.644 275.470,227.670 274.134,221.518 272.819 C 219.440 272.374,215.137 270.444,212.492 268.770 C 211.553 268.176,209.213 267.200,207.292 266.602 C 195.798 263.021,190.582 260.654,184.824 256.405 C 182.747 254.872,180.088 253.133,178.915 252.539 C 176.474 251.304,171.766 247.499,169.367 244.822 C 168.469 243.820,166.350 241.470,164.660 239.600 C 162.969 237.730,160.284 234.695,158.693 232.855 C 157.102 231.015,154.251 227.946,152.357 226.035 C 150.043 223.699,148.745 222.042,148.396 220.980 C 148.111 220.111,146.478 216.610,144.766 213.200 C 143.055 209.790,141.276 206.031,140.813 204.847 C 140.349 203.663,139.175 201.683,138.204 200.447 C 136.241 197.947,134.049 190.343,132.594 180.982 C 132.219 178.572,131.649 175.970,131.326 175.200 C 129.891 171.776,129.473 169.934,129.244 166.032 C 128.972 161.390,128.351 160.390,127.660 163.481 M394.124 238.019 C 390.921 238.652,377.808 244.874,375.600 246.808 C 374.830 247.483,372.776 248.782,371.036 249.695 C 368.560 250.995,366.545 252.607,361.769 257.112 C 358.413 260.278,354.616 263.635,353.333 264.572 C 350.713 266.486,348.591 268.689,346.037 272.148 C 345.084 273.440,343.993 274.807,343.613 275.187 C 342.747 276.053,340.726 279.016,339.922 280.600 C 339.586 281.260,337.532 284.686,335.356 288.213 C 331.499 294.464,330.848 295.787,326.304 306.600 C 323.255 313.854,319.670 327.803,318.799 335.800 C 317.703 345.860,318.592 367.405,320.384 374.200 C 320.790 375.740,321.339 378.080,321.604 379.400 C 321.870 380.720,322.542 382.880,323.099 384.200 C 324.325 387.109,326.616 395.206,326.998 397.984 L 327.275 400.000 331.438 400.000 L 335.600 400.000 335.600 395.608 C 335.600 383.542,337.218 371.954,340.069 363.600 C 340.933 361.070,342.080 357.156,342.620 354.902 C 343.974 349.245,346.099 344.089,348.928 339.600 C 352.338 334.188,353.028 332.927,354.398 329.605 C 355.871 326.033,357.803 323.409,362.186 319.025 C 364.009 317.202,366.418 314.380,367.538 312.755 C 370.346 308.680,370.599 308.421,374.422 305.704 C 376.280 304.383,378.600 302.300,379.577 301.075 C 381.808 298.277,384.078 296.565,388.400 294.417 C 390.270 293.487,393.141 291.632,394.779 290.293 C 396.418 288.955,398.263 287.608,398.879 287.300 L 400.000 286.741 400.000 262.171 L 400.000 237.600 397.900 237.644 C 396.745 237.668,395.046 237.837,394.124 238.019 " stroke="none" fill="#fb182f" fill-rule="evenodd"></path>
    <path id="path1" d="M197.393 1.891 C 197.720 4.070,198.722 6.205,200.679 8.893 C 201.438 9.934,202.914 12.094,203.959 13.693 C 205.005 15.292,206.830 17.500,208.013 18.600 C 211.484 21.825,212.467 22.861,214.971 25.935 C 217.977 29.625,221.289 32.693,224.936 35.167 C 226.511 36.235,228.845 38.030,230.123 39.155 C 233.301 41.952,234.747 41.885,235.383 38.911 C 235.731 37.282,233.803 27.194,232.743 25.099 C 232.325 24.274,231.701 22.474,231.356 21.099 C 231.012 19.725,230.238 17.700,229.636 16.600 C 229.034 15.500,228.121 13.545,227.606 12.255 C 227.092 10.966,225.620 8.446,224.336 6.655 C 223.052 4.865,221.707 2.635,221.346 1.700 L 220.691 0.000 208.900 0.000 L 197.109 0.000 197.393 1.891 M386.800 91.210 C 384.480 91.574,372.974 93.854,369.600 94.618 C 362.837 96.150,353.280 99.694,351.111 101.474 C 349.950 102.428,348.280 103.460,347.400 103.769 C 346.520 104.077,344.647 104.738,343.238 105.237 C 339.604 106.523,336.364 108.830,334.045 111.780 C 331.768 114.678,330.254 115.924,327.400 117.247 C 326.300 117.757,324.502 119.080,323.405 120.187 C 322.308 121.294,319.797 123.280,317.825 124.600 C 314.263 126.985,314.229 127.024,312.289 130.900 C 310.690 134.095,309.898 135.179,307.905 136.900 C 302.915 141.209,302.533 141.674,301.656 144.513 C 300.639 147.804,300.275 148.507,298.396 150.800 C 295.068 154.862,289.452 167.876,287.608 175.800 C 286.686 179.760,285.474 184.530,284.914 186.400 C 283.362 191.582,282.406 218.791,283.601 223.800 C 283.810 224.680,284.172 226.930,284.405 228.800 C 284.637 230.670,285.261 234.000,285.792 236.200 C 286.655 239.780,287.727 245.761,288.832 253.161 C 289.042 254.570,289.565 256.910,289.994 258.361 C 290.423 259.812,290.971 262.502,291.212 264.339 C 291.452 266.175,292.152 269.055,292.767 270.739 C 293.382 272.422,293.994 275.014,294.127 276.498 C 294.280 278.200,294.827 280.238,295.607 282.016 C 296.287 283.566,297.087 286.337,297.385 288.174 C 297.996 291.948,298.376 292.851,300.141 294.715 C 301.266 295.903,301.401 296.321,301.538 299.045 C 301.684 301.924,302.257 303.076,303.117 302.216 C 303.273 302.060,303.412 298.213,303.426 293.667 C 303.495 272.224,309.129 251.518,319.649 234.045 C 327.441 221.104,333.325 213.673,340.645 207.528 C 343.040 205.517,346.444 202.505,348.209 200.836 C 350.293 198.864,352.545 197.208,354.634 196.112 C 356.403 195.184,359.819 192.962,362.225 191.174 C 366.463 188.026,369.126 186.431,371.200 185.799 C 371.750 185.631,373.511 184.891,375.113 184.155 C 376.714 183.418,379.144 182.528,380.513 182.176 C 381.881 181.825,386.060 180.579,389.800 179.408 C 393.540 178.236,397.320 177.177,398.200 177.054 C 399.080 176.931,399.845 176.823,399.900 176.815 C 400.161 176.776,399.962 92.396,399.700 92.369 C 399.535 92.353,399.130 92.286,398.800 92.221 C 398.470 92.156,397.210 91.989,396.000 91.849 C 393.018 91.505,390.366 91.180,389.400 91.042 C 388.960 90.979,387.790 91.054,386.800 91.210 M107.105 274.000 C 106.502 275.870,105.821 278.868,105.591 280.663 C 105.360 282.457,104.367 286.303,103.382 289.208 C 102.398 292.114,101.386 295.739,101.134 297.265 C 99.801 305.340,95.810 306.933,77.400 306.741 C 69.412 306.657,68.794 306.706,64.800 307.738 C 58.323 309.411,53.186 311.192,51.132 312.475 C 50.105 313.117,47.916 314.058,46.268 314.567 C 42.666 315.678,38.849 317.765,36.400 319.962 C 34.495 321.671,31.895 323.100,28.601 324.246 C 27.439 324.650,25.764 325.720,24.601 326.801 C 23.501 327.823,21.160 329.717,19.400 331.009 C 15.810 333.644,8.407 340.975,6.395 343.888 C 4.876 346.087,1.732 348.800,0.702 348.800 C 0.040 348.800,0.000 350.263,0.000 374.400 L 0.000 400.000 51.047 400.000 L 102.093 400.000 101.806 397.300 C 101.648 395.815,100.893 392.177,100.129 389.215 C 99.364 386.254,98.481 381.869,98.166 379.471 C 97.851 377.074,97.501 374.964,97.389 374.782 C 96.824 373.868,96.439 365.966,96.815 363.000 C 97.039 361.240,97.384 356.110,97.583 351.600 C 97.782 347.090,98.212 342.050,98.538 340.400 C 98.864 338.750,99.333 335.330,99.581 332.800 C 99.829 330.270,100.203 326.940,100.413 325.400 C 100.623 323.860,100.977 320.620,101.200 318.200 C 101.422 315.780,101.971 312.360,102.420 310.600 C 102.914 308.662,103.371 305.034,103.579 301.400 C 103.861 296.471,104.115 294.864,104.999 292.400 C 105.904 289.876,106.125 288.415,106.388 283.189 C 106.642 278.151,106.867 276.593,107.581 274.933 C 108.065 273.807,108.403 272.372,108.331 271.743 C 108.228 270.845,107.965 271.328,107.105 274.000 M399.104 308.300 C 398.763 308.685,398.189 309.879,397.828 310.953 C 397.468 312.028,396.639 314.163,395.985 315.698 C 395.332 317.234,394.373 320.045,393.854 321.945 C 393.336 323.845,392.061 328.550,391.021 332.400 C 389.981 336.250,388.608 341.062,387.969 343.093 C 384.484 354.172,384.593 379.223,388.182 391.939 C 388.905 394.502,389.626 397.365,389.784 398.300 L 390.070 400.000 395.035 400.000 L 400.000 400.000 400.000 353.800 C 400.000 328.390,399.938 307.600,399.862 307.600 C 399.786 307.600,399.445 307.915,399.104 308.300 " stroke="none" fill="#14fb0c" fill-rule="evenodd"></path>
    <path id="path2" d="M168.621 0.900 C 168.771 1.395,169.485 3.330,170.207 5.200 C 170.929 7.070,171.799 10.092,172.141 11.916 C 173.105 17.064,181.689 34.232,186.637 40.909 C 187.815 42.499,189.356 44.880,190.061 46.200 C 190.766 47.520,192.353 49.680,193.588 51.000 C 194.823 52.320,196.991 54.729,198.406 56.354 C 199.821 57.979,202.153 60.257,203.589 61.417 C 205.025 62.578,208.270 65.536,210.800 67.992 C 215.514 72.568,216.659 73.363,220.682 74.860 C 223.603 75.948,224.599 76.580,226.622 78.628 C 227.514 79.531,229.304 80.755,230.599 81.348 C 231.895 81.941,233.831 82.966,234.901 83.624 C 237.502 85.225,245.554 88.392,246.297 88.108 C 246.765 87.928,246.840 87.375,246.659 85.440 C 246.533 84.098,246.252 80.825,246.035 78.167 C 245.751 74.693,245.306 72.331,244.452 69.767 C 243.799 67.805,242.782 63.860,242.192 61.000 C 241.603 58.140,240.772 54.540,240.346 53.000 C 239.921 51.460,239.048 48.220,238.407 45.800 C 235.249 33.875,235.387 34.250,235.387 37.573 C 235.387 41.803,233.705 42.308,230.123 39.155 C 228.845 38.030,226.511 36.235,224.936 35.167 C 221.289 32.693,217.977 29.625,214.971 25.935 C 212.467 22.861,211.484 21.825,208.013 18.600 C 206.830 17.500,205.005 15.292,203.959 13.693 C 202.914 12.094,201.438 9.934,200.679 8.893 C 198.722 6.205,197.720 4.070,197.393 1.891 L 197.109 0.000 182.728 0.000 L 168.346 0.000 168.621 0.900 M395.000 29.254 C 393.240 29.400,390.360 29.721,388.600 29.967 C 386.840 30.212,381.961 30.575,377.758 30.772 C 370.536 31.111,369.745 31.230,363.358 32.936 C 359.641 33.929,355.573 34.927,354.318 35.154 C 353.062 35.381,350.749 36.114,349.176 36.783 C 347.603 37.452,345.958 38.000,345.520 38.000 C 344.281 38.000,328.353 45.657,326.800 47.000 C 326.470 47.285,325.570 47.869,324.800 48.298 C 324.030 48.727,322.344 49.674,321.054 50.403 C 319.573 51.239,316.398 53.992,312.454 57.860 C 309.014 61.232,305.111 64.745,303.780 65.667 C 302.449 66.589,300.742 68.166,299.987 69.172 C 299.232 70.177,297.351 72.273,295.807 73.828 C 293.917 75.733,292.557 77.562,291.644 79.428 C 290.899 80.953,289.032 84.340,287.496 86.956 C 285.960 89.572,284.082 93.082,283.322 94.756 C 282.563 96.430,281.430 98.610,280.804 99.600 C 278.494 103.258,272.874 119.617,272.215 124.600 C 272.070 125.700,271.401 128.670,270.729 131.200 C 269.051 137.518,269.071 152.153,270.772 161.063 C 270.988 162.198,271.363 165.078,271.605 167.463 C 271.847 169.848,272.395 173.139,272.822 174.775 C 273.250 176.412,273.600 178.482,273.600 179.376 C 273.600 180.270,274.051 182.801,274.602 185.001 C 275.153 187.200,275.806 190.800,276.052 193.000 C 276.352 195.672,276.868 197.863,277.609 199.600 C 278.290 201.196,278.827 203.359,279.001 205.200 C 279.157 206.850,279.723 209.460,280.259 211.000 C 280.795 212.540,281.493 215.743,281.810 218.117 C 282.131 220.526,282.744 223.179,283.198 224.117 C 283.645 225.043,283.878 225.440,283.717 225.000 C 282.422 221.471,283.348 191.636,284.915 186.400 C 285.474 184.530,286.686 179.760,287.608 175.800 C 289.452 167.876,295.068 154.862,298.396 150.800 C 300.275 148.507,300.639 147.804,301.656 144.513 C 302.533 141.674,302.915 141.209,307.905 136.900 C 309.898 135.179,310.690 134.095,312.289 130.900 C 314.229 127.024,314.263 126.985,317.825 124.600 C 319.797 123.280,322.308 121.294,323.405 120.187 C 324.502 119.080,326.300 117.757,327.400 117.247 C 330.254 115.924,331.768 114.678,334.045 111.780 C 336.364 108.830,339.604 106.523,343.238 105.237 C 344.647 104.738,346.520 104.077,347.400 103.769 C 348.280 103.460,349.950 102.428,351.111 101.474 C 352.903 100.003,354.264 99.398,360.111 97.474 C 367.554 95.024,368.912 94.679,378.600 92.765 C 387.374 91.032,388.507 90.894,391.121 91.240 C 392.374 91.405,394.390 91.656,395.600 91.796 C 396.810 91.937,398.295 92.133,398.900 92.232 L 400.000 92.411 400.000 60.739 C 400.000 43.319,399.886 29.180,399.747 29.319 C 399.608 29.458,399.203 29.440,398.847 29.279 C 398.491 29.118,396.760 29.107,395.000 29.254 M75.000 217.443 C 74.120 217.715,72.230 217.953,70.800 217.970 C 67.167 218.014,52.947 220.724,51.800 221.592 C 51.168 222.070,47.573 223.105,45.600 223.378 C 41.104 223.998,30.373 228.426,24.968 231.891 C 23.886 232.585,21.650 233.722,20.000 234.418 C 18.350 235.114,15.491 236.700,13.648 237.942 C 7.892 241.819,2.687 244.624,2.017 244.210 C 1.825 244.092,1.577 244.221,1.465 244.498 C 1.304 244.893,1.181 244.886,0.886 244.466 C 0.062 243.293,0.000 246.972,0.000 297.033 C 0.000 346.114,0.036 348.800,0.702 348.800 C 1.732 348.800,4.876 346.087,6.395 343.888 C 8.407 340.975,15.810 333.644,19.400 331.009 C 21.160 329.717,23.501 327.823,24.601 326.801 C 25.764 325.720,27.439 324.650,28.601 324.246 C 31.895 323.100,34.495 321.671,36.400 319.962 C 38.849 317.765,42.666 315.678,46.268 314.567 C 47.916 314.058,50.105 313.117,51.132 312.475 C 53.186 311.192,58.323 309.411,64.800 307.738 C 68.794 306.706,69.412 306.657,77.400 306.741 C 95.810 306.933,99.801 305.340,101.134 297.265 C 101.386 295.739,102.401 292.105,103.389 289.189 C 104.409 286.177,105.377 282.399,105.630 280.443 C 105.874 278.549,106.596 275.470,107.233 273.600 C 108.164 270.868,108.467 269.060,108.777 264.400 C 109.066 260.060,109.420 257.816,110.182 255.485 C 110.935 253.181,111.201 251.514,111.204 249.085 C 111.206 247.278,111.647 242.830,112.184 239.200 C 113.207 232.286,113.609 223.812,113.064 220.628 C 112.897 219.655,111.720 219.225,110.316 219.626 C 109.708 219.799,108.617 219.746,107.829 219.504 C 106.737 219.169,105.871 219.217,103.913 219.720 C 101.872 220.244,99.400 220.409,99.400 220.020 C 99.400 219.715,94.720 218.856,90.600 218.405 C 88.400 218.165,85.610 217.802,84.400 217.599 C 80.745 216.985,76.694 216.918,75.000 217.443 M392.397 325.874 C 391.910 327.374,390.651 330.220,389.599 332.200 C 384.551 341.705,380.657 351.019,376.798 362.819 C 374.477 369.917,372.662 381.930,372.192 393.300 L 371.915 400.000 380.993 400.000 L 390.070 400.000 389.784 398.300 C 389.626 397.365,388.905 394.502,388.182 391.939 C 384.593 379.223,384.484 354.172,387.969 343.093 C 388.608 341.062,389.954 336.314,390.960 332.541 C 391.965 328.769,392.976 325.189,393.205 324.586 C 393.435 323.983,393.546 323.413,393.452 323.319 C 393.359 323.225,392.884 324.375,392.397 325.874 " stroke="none" fill="#04e5d2" fill-rule="evenodd"></path>
    <path id="path3" d="M221.017 0.878 C 221.496 2.431,222.294 3.803,224.524 6.912 C 225.701 8.553,227.087 10.954,227.603 12.248 C 228.120 13.541,229.043 15.501,229.654 16.603 C 230.266 17.705,230.972 19.562,231.222 20.731 C 231.473 21.899,231.765 22.768,231.871 22.662 C 232.173 22.361,230.901 17.767,230.055 16.101 C 229.635 15.275,228.926 13.430,228.479 12.000 C 228.031 10.570,227.175 8.231,226.577 6.801 C 225.978 5.372,225.379 3.302,225.244 2.201 L 225.000 0.200 222.866 0.078 C 220.801 -0.040,220.741 -0.015,221.017 0.878 M397.000 177.291 C 396.120 177.473,392.610 178.504,389.200 179.583 C 385.790 180.661,381.881 181.830,380.513 182.180 C 379.144 182.529,376.714 183.418,375.113 184.155 C 373.511 184.891,371.750 185.631,371.200 185.799 C 369.126 186.431,366.463 188.026,362.225 191.174 C 359.819 192.962,356.403 195.184,354.634 196.112 C 352.545 197.208,350.293 198.864,348.209 200.836 C 346.444 202.505,343.040 205.517,340.645 207.528 C 333.325 213.673,327.441 221.104,319.649 234.045 C 309.129 251.518,303.495 272.224,303.426 293.667 C 303.412 298.213,303.273 302.060,303.117 302.216 C 302.257 303.076,301.684 301.924,301.538 299.045 C 301.401 296.321,301.266 295.903,300.141 294.715 C 298.376 292.851,297.996 291.948,297.385 288.174 C 297.087 286.337,296.298 283.590,295.630 282.069 C 294.876 280.350,294.277 278.111,294.049 276.152 C 293.847 274.418,293.478 272.550,293.229 272.000 L 292.777 271.000 292.998 272.000 C 293.120 272.550,293.397 274.484,293.614 276.298 C 293.978 279.342,294.787 282.446,295.639 284.062 C 295.831 284.427,296.255 286.497,296.581 288.662 C 296.908 290.828,297.604 293.860,298.128 295.400 C 298.652 296.940,299.299 299.694,299.566 301.520 C 299.832 303.346,300.321 305.596,300.653 306.520 C 300.985 307.444,301.521 309.730,301.845 311.600 C 302.168 313.470,302.687 315.810,302.998 316.800 C 303.308 317.790,303.756 319.714,303.994 321.076 C 304.232 322.437,304.779 324.577,305.210 325.830 C 305.641 327.083,306.278 329.745,306.625 331.745 C 306.972 333.745,307.669 336.826,308.173 338.591 C 308.837 340.912,309.163 343.392,309.354 347.552 L 309.616 353.304 308.429 355.152 C 306.357 358.379,300.463 363.196,296.394 364.991 C 295.407 365.426,291.661 367.365,288.069 369.299 C 281.567 372.799,279.893 373.523,273.800 375.472 C 272.040 376.035,267.871 377.455,264.536 378.628 C 261.200 379.800,257.420 381.027,256.136 381.354 C 249.719 382.987,229.807 384.338,225.736 383.417 C 222.558 382.698,220.730 382.472,214.213 381.990 C 207.371 381.484,206.237 381.196,196.200 377.415 C 191.800 375.757,188.042 374.401,187.849 374.401 C 187.485 374.400,180.483 371.207,172.221 367.275 C 169.593 366.024,166.353 364.180,165.021 363.178 C 163.689 362.175,160.800 360.068,158.600 358.495 C 156.400 356.921,153.340 354.445,151.800 352.992 C 150.260 351.539,148.190 349.727,147.200 348.965 C 146.210 348.204,144.770 346.685,144.000 345.591 C 143.230 344.497,141.009 341.666,139.065 339.301 C 135.345 334.776,132.967 331.479,131.838 329.281 C 131.015 327.681,130.252 326.730,128.342 324.926 C 126.662 323.340,124.974 320.035,122.149 312.800 C 121.762 311.810,120.919 310.100,120.274 309.000 C 119.629 307.900,118.585 305.020,117.953 302.600 C 113.042 283.788,111.191 271.083,111.851 260.700 C 112.043 257.675,112.145 255.200,112.078 255.200 C 111.211 255.200,110.024 260.035,109.647 265.105 C 109.285 269.976,109.040 271.262,107.972 273.905 C 106.840 276.704,106.690 277.592,106.398 283.200 C 106.127 288.395,105.901 289.886,104.999 292.400 C 104.115 294.864,103.861 296.471,103.579 301.400 C 103.371 305.034,102.914 308.662,102.420 310.600 C 101.971 312.360,101.422 315.780,101.200 318.200 C 100.977 320.620,100.623 323.860,100.413 325.400 C 100.203 326.940,99.829 330.270,99.581 332.800 C 99.333 335.330,98.864 338.750,98.538 340.400 C 98.212 342.050,97.782 347.090,97.583 351.600 C 97.384 356.110,97.039 361.240,96.815 363.000 C 96.439 365.966,96.824 373.868,97.389 374.782 C 97.501 374.964,97.851 377.074,98.166 379.471 C 98.481 381.869,99.364 386.254,100.129 389.215 C 100.893 392.177,101.648 395.815,101.806 397.300 L 102.093 400.000 214.684 400.000 L 327.275 400.000 326.998 397.984 C 326.616 395.206,324.325 387.109,323.099 384.200 C 322.542 382.880,321.870 380.720,321.604 379.400 C 321.339 378.080,320.790 375.740,320.384 374.200 C 318.592 367.405,317.703 345.860,318.799 335.800 C 319.670 327.803,323.255 313.854,326.304 306.600 C 330.848 295.787,331.499 294.464,335.356 288.213 C 337.532 284.686,339.586 281.260,339.922 280.600 C 340.726 279.016,342.747 276.053,343.613 275.187 C 343.993 274.807,345.084 273.440,346.037 272.148 C 348.591 268.689,350.713 266.486,353.333 264.572 C 354.616 263.635,358.413 260.278,361.769 257.112 C 366.545 252.607,368.560 250.995,371.036 249.695 C 372.776 248.782,374.830 247.483,375.600 246.808 C 376.939 245.635,383.346 242.330,389.484 239.646 C 392.615 238.277,395.518 237.600,398.255 237.600 L 400.000 237.600 400.000 207.225 C 400.000 173.134,400.347 176.598,397.000 177.291 " stroke="none" fill="#f3c604" fill-rule="evenodd"></path>
    <path id="path4" d="M260.800 0.952 C 260.800 1.950,259.699 5.056,257.648 9.842 C 256.979 11.405,255.688 15.154,254.779 18.172 C 253.871 21.191,252.789 24.427,252.375 25.364 C 249.623 31.584,247.381 47.557,248.406 53.634 C 248.921 56.687,248.392 60.541,247.380 61.107 C 246.495 61.603,246.828 68.654,247.914 72.400 C 250.176 80.206,255.336 101.799,255.995 106.221 C 257.030 113.160,258.960 115.005,259.947 110.000 C 260.186 108.790,260.488 107.260,260.617 106.600 C 260.747 105.940,260.935 103.780,261.036 101.800 C 261.393 94.763,262.029 88.059,262.616 85.150 C 262.943 83.528,263.396 81.145,263.622 79.855 C 263.847 78.566,264.455 76.675,264.973 75.654 C 265.490 74.632,266.678 71.457,267.612 68.598 C 268.546 65.739,270.295 61.330,271.499 58.800 C 272.703 56.270,274.404 52.698,275.280 50.863 C 276.557 48.188,282.445 39.665,283.614 38.800 C 283.762 38.690,285.638 36.260,287.783 33.400 C 292.557 27.032,293.680 25.830,296.083 24.519 C 297.709 23.632,300.000 21.052,300.000 20.108 C 300.000 19.481,303.469 16.247,305.645 14.846 C 316.353 7.950,320.781 4.371,320.267 3.030 C 320.095 2.581,320.265 2.400,320.859 2.400 C 321.496 2.400,321.644 2.211,321.484 1.600 C 321.339 1.046,321.478 0.788,321.937 0.760 C 322.332 0.736,322.195 0.591,321.600 0.400 C 321.050 0.224,307.145 0.062,290.700 0.040 L 260.800 0.000 260.800 0.952 M154.470 7.700 C 153.987 9.075,153.324 11.608,152.997 13.330 C 152.670 15.051,151.959 17.987,151.418 19.854 C 150.877 21.721,150.233 24.723,149.987 26.524 C 149.742 28.326,149.115 32.230,148.596 35.200 C 148.076 38.170,147.545 41.950,147.417 43.600 C 147.288 45.250,146.922 48.400,146.603 50.600 C 145.729 56.638,145.165 71.416,145.612 76.600 C 146.514 87.055,148.930 99.894,150.805 104.200 C 152.482 108.051,156.705 118.615,157.200 120.200 C 157.894 122.418,162.969 132.540,164.286 134.330 C 167.224 138.325,169.469 140.877,170.932 141.886 C 171.820 142.499,173.561 144.382,174.800 146.070 C 176.039 147.759,177.966 149.862,179.082 150.745 C 180.199 151.627,181.717 153.115,182.456 154.052 C 185.598 158.031,189.394 161.180,197.800 166.780 C 207.156 173.012,210.845 174.983,221.000 179.181 C 222.980 180.000,225.197 180.979,225.926 181.359 C 226.656 181.738,228.996 182.385,231.126 182.798 C 233.257 183.210,236.890 184.126,239.200 184.833 C 242.990 185.993,243.947 186.125,249.000 186.189 C 252.282 186.230,255.359 186.481,256.434 186.795 C 257.733 187.175,258.725 187.222,259.834 186.959 C 265.927 185.512,270.977 188.560,272.564 194.642 L 273.075 196.600 273.583 194.382 C 274.065 192.276,274.027 191.966,272.820 188.199 C 272.121 186.018,271.362 182.696,271.134 180.817 C 270.905 178.937,270.304 176.320,269.799 175.000 C 269.294 173.680,268.755 171.610,268.601 170.400 C 268.448 169.190,267.814 165.860,267.193 163.000 C 266.572 160.140,265.940 156.810,265.790 155.600 C 265.639 154.390,265.018 151.780,264.410 149.800 C 263.802 147.820,262.909 143.746,262.427 140.746 C 261.670 136.038,259.431 127.345,258.650 126.081 C 258.509 125.853,257.810 125.736,257.097 125.821 C 252.115 126.411,250.337 126.452,248.373 126.019 C 247.178 125.755,245.570 125.456,244.800 125.354 C 244.030 125.252,242.320 124.659,241.000 124.038 C 239.680 123.416,237.160 122.299,235.400 121.557 C 233.640 120.814,232.110 120.096,232.000 119.961 C 231.890 119.826,231.086 119.584,230.214 119.423 C 229.342 119.263,226.732 118.275,224.414 117.227 C 222.096 116.180,219.905 115.218,219.544 115.091 C 217.098 114.226,206.300 106.926,202.409 103.507 C 200.974 102.246,199.666 101.211,199.503 101.207 C 198.019 101.172,182.170 83.288,177.765 76.679 C 176.564 74.876,175.405 73.183,175.190 72.917 C 174.976 72.651,174.800 72.265,174.800 72.058 C 174.800 71.852,173.168 68.469,171.173 64.541 C 162.033 46.543,158.579 33.767,157.618 14.400 C 157.173 5.441,156.080 3.115,154.470 7.700 M46.200 65.622 C 44.660 65.820,41.330 66.538,38.800 67.218 C 36.270 67.897,33.300 68.635,32.200 68.857 C 16.838 71.956,10.231 74.535,5.600 79.243 C 3.950 80.920,2.375 82.211,2.100 82.113 C 1.825 82.014,1.600 82.128,1.600 82.367 C 1.600 82.605,1.240 82.800,0.800 82.800 C 0.005 82.800,0.000 83.065,0.005 126.500 C 0.011 168.921,0.074 172.249,0.863 171.761 C 1.068 171.635,1.497 171.749,1.818 172.015 C 2.247 172.371,2.400 172.376,2.400 172.035 C 2.400 171.701,2.616 171.687,3.174 171.986 C 5.080 173.006,6.566 172.468,9.941 169.538 C 10.899 168.707,12.649 167.665,13.830 167.223 C 15.011 166.781,16.927 165.897,18.088 165.258 C 19.250 164.619,21.100 163.886,22.200 163.628 C 23.300 163.370,26.029 162.449,28.264 161.582 C 30.500 160.714,32.930 159.921,33.664 159.820 C 34.399 159.718,35.990 159.348,37.200 158.998 C 38.410 158.647,40.120 158.199,41.000 158.001 C 41.880 157.804,43.500 157.349,44.600 156.990 C 45.700 156.631,48.850 156.193,51.600 156.016 C 54.963 155.799,58.302 155.272,61.800 154.405 C 66.365 153.274,67.440 153.144,70.600 153.336 C 80.718 153.953,86.067 154.448,88.600 155.004 C 95.687 156.558,98.815 156.955,100.155 156.471 C 102.165 155.744,103.896 155.906,106.131 157.028 C 107.257 157.594,109.116 158.301,110.261 158.599 C 112.747 159.247,114.098 159.918,113.819 160.369 C 113.480 160.918,116.070 162.789,117.787 163.235 C 122.034 164.340,122.304 164.788,122.135 170.432 L 122.010 174.600 122.739 173.000 C 123.742 170.798,124.301 168.337,124.601 164.800 C 124.974 160.403,125.540 157.829,126.697 155.273 C 127.527 153.439,127.784 152.073,128.026 148.200 C 128.229 144.969,128.731 141.834,129.563 138.609 C 130.418 135.297,130.800 132.876,130.800 130.769 C 130.800 129.093,131.164 126.029,131.609 123.961 C 132.053 121.892,132.513 117.950,132.630 115.200 C 132.747 112.450,133.131 108.440,133.484 106.290 C 134.015 103.055,134.047 101.812,133.670 99.090 C 133.419 97.280,133.043 94.478,132.834 92.861 C 132.407 89.558,131.911 88.805,129.200 87.342 C 128.210 86.808,126.805 85.995,126.079 85.536 C 125.352 85.077,123.122 84.093,121.123 83.350 C 118.701 82.450,116.539 81.279,114.644 79.843 C 111.398 77.383,110.563 76.929,105.711 74.982 C 103.780 74.208,101.210 72.966,99.999 72.224 C 98.789 71.481,97.079 70.748,96.199 70.595 C 95.320 70.442,91.630 69.589,88.000 68.699 C 82.040 67.239,80.838 67.073,75.600 66.986 C 72.410 66.934,69.170 66.776,68.400 66.635 C 67.630 66.495,63.940 66.200,60.200 65.981 C 56.460 65.761,52.410 65.509,51.200 65.422 C 49.990 65.334,47.740 65.425,46.200 65.622 M386.311 325.690 C 384.930 327.260,382.431 329.998,380.757 331.773 C 376.546 336.240,371.406 343.110,369.067 347.400 C 360.796 362.567,357.679 370.216,354.197 383.890 C 352.554 390.341,352.307 391.770,351.814 397.700 L 351.623 400.000 357.351 400.000 L 363.080 400.000 363.341 396.500 C 363.485 394.575,363.956 391.380,364.389 389.400 C 364.821 387.420,365.641 383.280,366.210 380.200 C 367.697 372.151,373.731 355.204,377.349 348.913 C 386.159 333.592,390.821 323.601,389.411 323.060 C 389.026 322.912,387.953 323.822,386.311 325.690 " stroke="none" fill="#3c11fb" fill-rule="evenodd"></path>
    <path id="path5" d="M0.000 41.400 C 0.000 82.533,0.005 82.800,0.800 82.800 C 1.240 82.800,1.600 82.605,1.600 82.367 C 1.600 82.128,1.825 82.014,2.100 82.113 C 2.375 82.211,3.950 80.920,5.600 79.243 C 10.231 74.535,16.838 71.956,32.200 68.857 C 33.300 68.635,36.270 67.900,38.800 67.224 C 45.046 65.555,49.577 65.076,54.369 65.577 C 60.610 66.230,70.220 66.847,76.000 66.965 C 80.735 67.062,82.213 67.275,88.000 68.696 C 91.630 69.587,95.320 70.442,96.199 70.595 C 97.079 70.748,98.789 71.481,99.999 72.224 C 101.210 72.966,103.780 74.208,105.711 74.982 C 110.563 76.929,111.398 77.383,114.644 79.843 C 116.539 81.279,118.701 82.450,121.123 83.350 C 123.122 84.093,125.352 85.077,126.079 85.536 C 126.805 85.995,128.210 86.808,129.200 87.342 C 131.911 88.805,132.407 89.558,132.834 92.861 C 133.043 94.478,133.419 97.280,133.670 99.090 C 134.047 101.812,134.015 103.055,133.484 106.290 C 133.131 108.440,132.747 112.450,132.630 115.200 C 132.513 117.950,132.053 121.892,131.609 123.961 C 131.164 126.029,130.800 129.097,130.800 130.779 C 130.800 132.817,130.447 135.163,129.740 137.818 C 128.866 141.102,128.667 142.781,128.602 147.400 C 128.543 151.564,128.302 153.901,127.661 156.515 C 127.091 158.845,126.811 161.206,126.832 163.515 L 126.864 167.000 127.417 164.448 C 128.385 159.986,129.018 160.606,129.297 166.288 C 129.414 168.660,129.692 171.050,129.917 171.600 C 131.601 175.725,131.996 177.106,132.596 180.982 C 134.044 190.325,136.239 197.946,138.204 200.447 C 139.175 201.683,140.349 203.663,140.813 204.847 C 141.276 206.031,143.055 209.790,144.766 213.200 C 146.478 216.610,148.111 220.111,148.396 220.980 C 148.745 222.042,150.043 223.699,152.357 226.035 C 154.251 227.946,157.102 231.015,158.693 232.855 C 160.284 234.695,162.969 237.730,164.660 239.600 C 166.350 241.470,168.469 243.820,169.367 244.822 C 171.766 247.499,176.474 251.304,178.915 252.539 C 180.088 253.133,182.747 254.872,184.824 256.405 C 190.582 260.654,195.798 263.021,207.292 266.602 C 209.213 267.200,211.553 268.176,212.492 268.770 C 215.137 270.444,219.440 272.374,221.518 272.819 C 227.670 274.134,253.644 275.470,260.685 274.834 C 263.498 274.580,268.590 274.197,272.000 273.983 C 279.155 273.535,279.693 273.369,280.754 271.289 C 282.006 268.836,282.611 268.510,284.001 269.537 C 287.171 271.881,288.948 265.658,286.842 259.586 C 286.424 258.384,285.963 255.870,285.815 254.000 C 285.668 252.130,285.115 249.070,284.587 247.200 C 284.058 245.330,283.447 242.334,283.229 240.542 C 283.011 238.750,282.466 235.881,282.016 234.167 C 281.567 232.452,281.200 230.485,281.200 229.795 C 281.200 229.105,280.769 227.100,280.241 225.338 C 279.714 223.576,279.089 220.889,278.852 219.367 C 278.616 217.845,277.958 215.250,277.390 213.600 C 276.822 211.950,276.176 208.980,275.953 207.000 C 275.665 204.433,275.207 202.692,274.358 200.934 C 273.703 199.578,272.986 197.345,272.765 195.973 C 272.311 193.154,272.061 192.586,270.075 189.850 C 268.008 187.004,264.864 186.151,259.530 186.988 C 258.295 187.182,257.140 187.102,256.130 186.752 C 255.179 186.422,252.482 186.202,249.000 186.170 C 243.915 186.123,243.013 186.000,239.200 184.833 C 236.890 184.126,233.257 183.210,231.126 182.798 C 228.996 182.385,226.656 181.738,225.926 181.359 C 225.197 180.979,222.980 180.000,221.000 179.181 C 210.845 174.983,207.156 173.012,197.800 166.780 C 189.394 161.180,185.598 158.031,182.456 154.052 C 181.717 153.115,180.199 151.627,179.082 150.745 C 177.966 149.862,176.039 147.759,174.800 146.070 C 173.561 144.382,171.820 142.499,170.932 141.886 C 169.469 140.877,167.224 138.325,164.286 134.330 C 162.969 132.540,157.894 122.418,157.200 120.200 C 156.705 118.615,152.482 108.051,150.805 104.200 C 148.930 99.894,146.514 87.055,145.612 76.600 C 145.164 71.400,145.730 56.710,146.622 50.400 C 146.949 48.090,147.386 44.400,147.595 42.200 C 147.803 40.000,148.323 36.490,148.750 34.400 C 149.177 32.310,149.652 28.980,149.807 27.000 C 149.962 25.020,150.429 21.520,150.844 19.223 C 151.260 16.925,151.592 14.135,151.583 13.023 L 151.566 11.000 150.883 12.225 C 148.092 17.229,146.210 16.810,143.054 10.481 C 140.870 6.099,140.365 4.403,140.025 0.300 C 140.011 0.135,108.500 0.000,70.000 0.000 L 0.000 0.000 0.000 41.400 M232.195 4.300 C 232.532 10.127,234.241 20.773,235.389 24.200 C 237.153 29.466,239.200 36.209,239.200 36.757 C 239.200 37.059,239.724 38.856,240.364 40.753 C 241.004 42.649,241.723 45.151,241.963 46.313 C 242.202 47.475,242.770 49.156,243.225 50.048 C 243.680 50.940,244.311 53.026,244.628 54.683 C 246.277 63.302,249.612 62.521,248.399 53.800 C 247.454 46.999,249.603 31.631,252.375 25.364 C 252.789 24.427,253.871 21.191,254.779 18.172 C 255.688 15.154,256.979 11.405,257.648 9.842 C 259.699 5.056,260.800 1.950,260.800 0.952 L 260.800 0.000 246.373 0.000 L 231.946 0.000 232.195 4.300 M398.762 287.347 C 398.191 287.645,396.391 288.977,394.762 290.308 C 393.133 291.638,390.270 293.487,388.400 294.417 C 384.078 296.565,381.808 298.277,379.577 301.075 C 378.600 302.300,376.280 304.383,374.422 305.704 C 370.599 308.421,370.346 308.680,367.538 312.755 C 366.418 314.380,364.009 317.202,362.186 319.025 C 357.803 323.409,355.871 326.033,354.398 329.605 C 353.028 332.927,352.338 334.188,348.928 339.600 C 346.099 344.089,343.974 349.245,342.620 354.902 C 342.080 357.156,340.933 361.070,340.069 363.600 C 337.218 371.954,335.600 383.542,335.600 395.608 L 335.600 400.000 343.553 400.000 C 352.618 400.000,351.807 400.386,351.954 396.000 C 352.169 389.618,356.002 375.625,360.659 364.226 C 362.346 360.094,364.557 355.670,369.067 347.400 C 371.402 343.118,376.536 336.252,380.757 331.767 C 388.419 323.626,389.113 322.694,391.961 316.705 C 393.453 313.567,394.985 310.061,395.365 308.912 C 396.159 306.514,397.937 304.400,399.160 304.400 C 399.988 304.400,400.000 304.271,400.000 295.600 C 400.000 290.760,399.955 286.801,399.900 286.802 C 399.845 286.804,399.333 287.049,398.762 287.347 " stroke="none" fill="#ea04f2" fill-rule="evenodd"></path>
    <path id="path6" d="M159.200 2.110 C 159.200 3.271,158.987 5.746,158.727 7.610 C 157.355 17.433,158.974 33.064,162.523 44.264 C 165.025 52.160,172.736 68.941,174.334 69.968 C 174.829 70.286,176.800 74.244,176.800 74.922 C 176.800 76.145,183.539 84.839,188.333 89.800 C 190.246 91.780,192.754 94.505,193.906 95.854 C 195.058 97.204,196.675 98.629,197.500 99.019 C 199.344 99.892,201.600 101.653,201.600 102.219 C 201.600 103.548,215.872 113.790,219.531 115.086 C 219.899 115.216,222.096 116.180,224.414 117.227 C 226.732 118.275,229.342 119.263,230.214 119.423 C 231.086 119.584,231.890 119.828,232.000 119.965 C 232.443 120.518,239.454 123.300,240.393 123.295 C 240.947 123.293,241.701 123.449,242.069 123.643 C 243.753 124.529,247.535 125.119,248.471 124.640 C 250.215 123.749,252.238 123.888,253.416 124.980 C 255.363 126.785,257.509 126.266,258.367 123.784 C 258.757 122.655,259.298 121.800,259.622 121.800 C 260.294 121.800,260.796 123.916,260.345 124.845 C 259.631 126.312,259.742 128.636,260.684 131.945 C 262.666 138.912,263.204 141.072,263.803 144.470 C 264.139 146.378,264.657 148.628,264.954 149.470 C 265.251 150.312,265.715 152.350,265.985 154.000 C 266.255 155.650,266.907 158.530,267.435 160.400 C 267.963 162.270,268.650 165.623,268.962 167.851 C 269.348 170.608,269.912 172.717,270.729 174.451 C 271.600 176.302,271.998 177.862,272.179 180.146 C 272.350 182.292,272.856 184.391,273.770 186.746 C 274.526 188.695,275.306 191.674,275.558 193.583 C 275.804 195.443,276.149 197.109,276.324 197.284 C 276.865 197.825,275.695 189.479,274.619 185.122 C 274.059 182.855,273.601 180.269,273.600 179.375 C 273.600 178.482,273.250 176.412,272.822 174.775 C 272.395 173.139,271.847 169.848,271.605 167.463 C 271.363 165.078,270.988 162.198,270.772 161.063 C 269.071 152.153,269.051 137.518,270.729 131.200 C 271.401 128.670,272.070 125.700,272.215 124.600 C 272.874 119.617,278.494 103.258,280.804 99.600 C 281.430 98.610,282.563 96.430,283.322 94.756 C 284.082 93.082,285.960 89.572,287.496 86.956 C 289.032 84.340,290.899 80.953,291.644 79.428 C 292.557 77.562,293.917 75.733,295.807 73.828 C 297.351 72.273,299.232 70.177,299.987 69.172 C 300.742 68.166,302.449 66.589,303.780 65.667 C 305.111 64.745,309.014 61.232,312.454 57.860 C 316.398 53.992,319.573 51.239,321.054 50.403 C 322.344 49.674,324.030 48.727,324.800 48.298 C 325.570 47.869,326.470 47.285,326.800 47.000 C 328.353 45.657,344.281 38.000,345.520 38.000 C 345.958 38.000,347.603 37.452,349.176 36.783 C 350.749 36.114,353.062 35.381,354.318 35.154 C 355.573 34.927,359.638 33.930,363.350 32.938 C 369.733 31.233,370.526 31.114,377.950 30.748 C 382.268 30.536,387.060 30.190,388.600 29.979 C 393.292 29.336,398.449 28.983,398.918 29.273 C 399.904 29.883,400.000 28.585,400.000 14.576 L 400.000 0.000 360.300 0.040 C 338.465 0.062,321.050 0.224,321.600 0.400 C 322.195 0.591,322.332 0.736,321.937 0.760 C 321.478 0.788,321.339 1.046,321.484 1.600 C 321.644 2.211,321.496 2.400,320.859 2.400 C 320.265 2.400,320.095 2.581,320.267 3.030 C 320.644 4.013,317.532 6.938,312.600 10.235 C 306.072 14.599,304.218 15.955,304.036 16.497 C 303.866 17.003,302.192 18.450,301.814 18.418 C 301.548 18.396,300.000 19.924,300.000 20.209 C 300.000 21.064,297.626 23.677,296.083 24.519 C 293.680 25.830,292.557 27.032,287.783 33.400 C 285.638 36.260,283.762 38.690,283.614 38.800 C 282.445 39.665,276.557 48.188,275.280 50.863 C 274.404 52.698,272.703 56.270,271.499 58.800 C 270.295 61.330,268.546 65.740,267.612 68.600 C 266.679 71.460,265.662 74.290,265.352 74.890 C 265.043 75.489,264.442 78.009,264.017 80.490 C 263.591 82.970,262.979 85.540,262.655 86.200 C 262.005 87.527,261.200 95.353,261.200 100.349 C 261.200 106.821,259.282 114.030,257.871 112.859 C 256.770 111.945,254.325 104.036,253.588 99.000 C 253.330 97.240,252.697 94.450,252.181 92.800 C 251.664 91.150,250.942 88.450,250.575 86.800 C 250.208 85.150,249.472 82.756,248.940 81.479 C 248.408 80.203,247.790 77.705,247.567 75.929 C 247.316 73.924,246.709 71.699,245.966 70.060 C 245.307 68.608,244.483 66.156,244.135 64.610 C 243.786 63.065,243.068 60.990,242.539 60.000 C 242.010 59.010,241.668 58.560,241.780 59.000 C 241.892 59.440,242.338 61.510,242.771 63.600 C 243.205 65.690,244.027 68.725,244.598 70.345 C 245.323 72.401,245.757 74.757,246.033 78.145 C 246.251 80.815,246.533 84.098,246.659 85.440 C 246.840 87.375,246.765 87.928,246.297 88.108 C 245.554 88.392,237.502 85.225,234.901 83.624 C 233.831 82.966,231.895 81.941,230.599 81.348 C 229.304 80.755,227.514 79.531,226.622 78.628 C 224.599 76.580,223.603 75.948,220.682 74.860 C 216.659 73.363,215.514 72.568,210.800 67.992 C 208.270 65.536,205.025 62.578,203.589 61.417 C 202.153 60.257,199.821 57.979,198.406 56.354 C 196.991 54.729,194.823 52.320,193.588 51.000 C 192.353 49.680,190.766 47.520,190.061 46.200 C 189.356 44.880,187.815 42.499,186.637 40.909 C 181.541 34.032,173.195 17.240,172.053 11.566 C 171.636 9.495,170.847 6.720,170.298 5.400 C 169.750 4.080,169.085 2.325,168.820 1.500 L 168.338 0.000 163.769 0.000 L 159.200 0.000 159.200 2.110 M61.600 154.420 C 58.457 155.247,55.353 155.743,51.800 155.985 C 48.940 156.180,45.700 156.633,44.600 156.991 C 43.500 157.349,41.880 157.804,41.000 158.001 C 40.120 158.199,38.410 158.647,37.200 158.998 C 35.990 159.348,34.399 159.718,33.664 159.820 C 32.930 159.921,30.500 160.714,28.264 161.582 C 26.029 162.449,23.300 163.370,22.200 163.628 C 21.100 163.886,19.250 164.619,18.088 165.258 C 16.927 165.897,15.031 166.774,13.876 167.206 C 12.720 167.638,10.700 168.901,9.387 170.012 C 8.074 171.124,6.550 172.143,6.000 172.278 C 5.450 172.413,4.886 172.697,4.747 172.909 C 4.606 173.125,4.101 172.901,3.600 172.400 C 2.946 171.746,2.624 171.637,2.403 171.995 C 2.173 172.367,2.030 172.372,1.810 172.015 C 1.650 171.757,1.279 171.638,0.985 171.751 C 0.691 171.863,0.370 171.651,0.271 171.278 C 0.173 170.905,0.075 187.340,0.053 207.800 C 0.030 228.821,0.162 244.763,0.358 244.455 C 0.649 243.994,0.742 243.994,0.952 244.455 C 1.145 244.879,1.252 244.889,1.434 244.498 C 1.563 244.221,1.825 244.092,2.017 244.210 C 2.687 244.624,7.892 241.819,13.648 237.942 C 15.491 236.700,18.350 235.114,20.000 234.418 C 21.650 233.722,23.886 232.585,24.968 231.891 C 30.373 228.426,41.104 223.998,45.600 223.378 C 47.573 223.105,51.168 222.070,51.800 221.592 C 52.946 220.724,67.230 218.001,70.636 218.001 C 71.976 218.000,73.868 217.761,74.839 217.469 C 76.690 216.912,80.759 217.080,87.400 217.989 C 89.160 218.230,92.074 218.589,93.876 218.786 C 95.677 218.984,97.522 219.344,97.976 219.587 C 98.429 219.830,98.800 219.910,98.800 219.765 C 98.800 219.620,99.025 219.680,99.300 219.896 C 100.027 220.470,101.085 220.427,103.913 219.711 C 105.866 219.216,106.740 219.170,107.829 219.504 C 108.617 219.746,109.708 219.799,110.316 219.626 C 111.542 219.276,112.975 219.651,113.050 220.340 C 113.078 220.593,113.128 221.295,113.162 221.900 C 113.356 225.322,114.126 220.689,114.399 214.455 C 114.643 208.918,114.894 206.841,115.570 204.800 C 116.220 202.834,116.518 200.541,116.792 195.400 C 117.057 190.425,117.377 187.902,117.984 186.000 C 119.009 182.784,119.123 177.947,118.224 175.797 C 117.217 173.386,117.428 170.941,118.916 167.789 C 120.553 164.320,120.543 163.935,118.800 163.509 C 116.706 162.998,115.200 162.347,115.200 161.951 C 115.200 161.758,114.932 161.600,114.603 161.600 C 114.275 161.600,113.782 161.240,113.507 160.800 C 113.232 160.360,112.706 160.000,112.337 160.000 C 111.968 160.000,111.599 159.797,111.516 159.549 C 111.434 159.302,110.253 158.696,108.893 158.203 C 107.532 157.711,106.502 157.441,106.603 157.604 C 106.989 158.229,100.897 158.040,100.265 157.408 C 99.931 157.074,99.149 156.794,98.529 156.786 C 97.385 156.772,93.691 156.106,88.600 154.997 C 85.846 154.397,78.663 153.765,70.400 153.397 C 66.651 153.230,65.706 153.340,61.600 154.420 M385.143 336.700 C 383.593 338.394,379.903 344.620,378.209 348.400 C 377.371 350.270,375.655 353.870,374.396 356.400 C 373.137 358.930,371.978 361.450,371.820 362.000 C 371.663 362.550,370.748 364.980,369.788 367.400 C 368.608 370.373,367.775 373.357,367.220 376.600 C 366.769 379.240,366.147 382.226,365.838 383.234 C 365.530 384.243,365.148 386.313,364.991 387.834 C 364.833 389.356,364.436 391.860,364.109 393.400 C 363.782 394.940,363.427 397.055,363.319 398.100 L 363.123 400.000 367.519 400.000 L 371.915 400.000 372.192 393.300 C 372.662 381.930,374.477 369.917,376.798 362.819 C 379.585 354.298,381.944 348.130,384.569 342.501 C 386.236 338.927,387.600 335.912,387.600 335.801 C 387.600 335.175,386.004 335.759,385.143 336.700 " stroke="none" fill="#0477fb" fill-rule="evenodd"></path>
    <path id="path7" d="M156.148 2.444 C 155.795 4.578,155.843 5.089,156.527 6.471 C 157.163 7.756,157.374 9.381,157.648 15.087 C 158.061 23.675,158.504 24.745,158.357 16.799 C 158.298 13.609,158.464 9.475,158.725 7.610 C 158.986 5.746,159.200 3.271,159.200 2.110 L 159.200 0.000 157.876 -0.000 C 156.566 -0.000,156.548 0.026,156.148 2.444 M302.626 16.877 C 301.999 17.416,301.556 18.056,301.643 18.299 C 301.850 18.881,304.110 16.931,303.914 16.341 C 303.827 16.080,303.295 16.301,302.626 16.877 M239.414 49.600 C 239.564 50.150,240.051 52.040,240.495 53.800 C 240.939 55.560,241.821 58.170,242.455 59.600 C 243.089 61.030,243.872 63.382,244.196 64.826 C 244.519 66.271,245.319 68.633,245.973 70.076 C 246.709 71.699,247.317 73.931,247.567 75.929 C 247.790 77.705,248.408 80.203,248.940 81.479 C 249.472 82.756,250.208 85.150,250.575 86.800 C 250.942 88.450,251.664 91.150,252.181 92.800 C 252.697 94.450,253.330 97.240,253.588 99.000 C 253.987 101.728,254.406 103.481,255.862 108.530 C 256.336 110.172,256.395 108.720,255.967 105.955 C 255.447 102.598,254.238 97.328,251.022 84.400 C 247.973 72.143,247.300 69.769,246.212 67.421 C 245.696 66.309,245.150 64.770,244.997 64.000 C 244.845 63.230,244.136 61.430,243.423 60.000 C 242.710 58.570,241.835 56.220,241.478 54.777 C 241.122 53.334,240.450 51.354,239.985 50.377 C 239.521 49.400,239.264 49.050,239.414 49.600 M174.535 71.300 C 174.791 72.015,175.109 72.690,175.242 72.800 C 175.375 72.910,175.773 73.540,176.126 74.200 C 177.211 76.229,176.868 74.555,175.717 72.209 C 174.533 69.795,173.792 69.226,174.535 71.300 M263.820 79.000 C 263.663 80.100,263.386 81.540,263.205 82.200 C 262.606 84.374,262.405 86.044,262.769 85.819 C 263.213 85.545,264.555 78.250,264.295 77.527 C 264.190 77.237,263.977 77.900,263.820 79.000 M198.162 100.200 C 198.756 100.750,199.355 101.200,199.495 101.200 C 199.634 101.200,200.165 101.591,200.674 102.070 C 201.356 102.710,201.600 102.785,201.600 102.355 C 201.600 102.034,200.847 101.193,199.927 100.486 C 197.912 98.937,196.564 98.719,198.162 100.200 M256.800 111.089 C 256.800 111.321,257.171 111.936,257.624 112.456 L 258.447 113.400 257.745 112.200 C 256.820 110.621,256.800 110.597,256.800 111.089 M258.617 123.021 C 257.860 124.833,257.855 124.623,258.700 126.459 C 259.544 128.292,259.867 128.390,259.912 126.825 C 259.930 126.179,260.106 125.324,260.302 124.925 C 260.746 124.021,260.365 121.921,259.717 121.705 C 259.451 121.617,258.956 122.209,258.617 123.021 M240.799 123.799 C 241.416 124.542,245.016 125.646,245.818 125.338 C 246.144 125.213,246.675 125.330,246.999 125.599 C 247.654 126.143,254.400 126.693,254.400 126.202 C 254.400 124.498,250.671 123.516,248.471 124.640 C 247.513 125.130,243.716 124.518,241.995 123.597 C 240.830 122.974,240.202 123.080,240.799 123.799 M262.210 138.600 C 262.907 143.990,263.696 148.068,264.397 149.904 C 264.839 151.062,265.480 153.762,265.822 155.904 C 266.164 158.047,266.868 161.690,267.388 164.000 C 267.907 166.310,268.455 169.190,268.606 170.400 C 268.757 171.610,269.294 173.680,269.799 175.000 C 270.304 176.320,270.905 178.937,271.134 180.817 C 271.362 182.696,272.096 185.938,272.763 188.021 C 273.430 190.105,274.185 193.208,274.439 194.917 C 274.813 197.433,275.201 198.473,276.478 200.374 C 277.908 202.503,278.087 203.063,278.397 206.367 C 278.652 209.083,279.041 210.646,279.927 212.506 C 280.580 213.877,281.210 215.270,281.326 215.600 C 281.460 215.983,281.548 216.015,281.568 215.688 C 281.586 215.407,281.078 213.594,280.441 211.659 C 279.803 209.724,279.150 206.735,278.989 205.015 C 278.766 202.637,278.372 201.256,277.343 199.244 C 276.411 197.421,275.854 195.607,275.551 193.400 C 275.309 191.640,274.507 188.646,273.770 186.746 C 272.856 184.391,272.350 182.292,272.179 180.146 C 271.998 177.862,271.600 176.302,270.729 174.451 C 269.912 172.717,269.348 170.608,268.962 167.851 C 268.650 165.623,267.963 162.270,267.435 160.400 C 266.907 158.530,266.255 155.650,265.985 154.000 C 265.715 152.350,265.251 150.312,264.954 149.470 C 264.657 148.628,264.139 146.378,263.802 144.470 C 263.081 140.386,261.857 135.872,262.210 138.600 M100.500 156.265 C 99.751 156.567,99.898 157.514,100.735 157.779 C 102.117 158.218,106.750 157.935,106.554 157.424 C 106.162 156.402,102.092 155.623,100.500 156.265 M111.455 159.400 C 111.582 159.730,111.952 160.000,112.279 160.000 C 112.605 160.000,113.171 160.323,113.536 160.719 C 113.901 161.114,114.067 161.233,113.903 160.982 C 113.740 160.731,113.712 160.421,113.841 160.293 C 113.969 160.164,113.527 159.776,112.857 159.429 C 111.348 158.649,111.166 158.645,111.455 159.400 M120.101 164.635 C 120.230 164.763,119.720 166.153,118.968 167.723 C 117.425 170.942,117.203 173.353,118.224 175.797 C 119.123 177.947,119.009 182.784,117.984 186.000 C 117.377 187.902,117.057 190.425,116.792 195.400 C 116.518 200.546,116.220 202.832,115.568 204.800 C 114.901 206.814,114.637 208.932,114.396 214.200 C 114.225 217.940,113.885 221.854,113.641 222.898 C 113.158 224.966,112.963 230.296,113.356 230.689 C 113.490 230.823,113.600 230.348,113.600 229.633 C 113.600 228.918,113.947 226.953,114.372 225.267 C 114.796 223.580,115.340 220.040,115.581 217.400 C 116.294 209.568,116.396 208.881,117.227 206.285 C 117.669 204.905,118.202 201.576,118.425 198.800 C 118.692 195.494,119.245 192.309,120.058 189.400 C 120.997 186.044,121.368 183.671,121.625 179.400 C 122.437 165.918,122.337 164.410,120.633 164.403 C 120.212 164.401,119.972 164.506,120.101 164.635 M111.337 247.800 C 111.339 249.560,111.409 250.230,111.493 249.289 C 111.578 248.349,111.577 246.909,111.491 246.089 C 111.405 245.270,111.336 246.040,111.337 247.800 M394.409 317.983 C 393.747 319.293,392.663 320.984,391.999 321.740 C 391.067 322.801,380.676 342.800,381.056 342.800 C 381.103 342.800,381.813 341.675,382.632 340.300 C 384.530 337.116,385.930 335.600,386.975 335.600 C 388.231 335.599,390.852 330.367,393.588 322.403 C 396.121 315.026,396.249 314.337,394.409 317.983 M377.400 348.883 C 375.870 351.567,373.472 357.206,373.745 357.478 C 373.816 357.549,375.080 355.063,376.552 351.952 C 379.530 345.664,379.808 344.659,377.400 348.883 M366.447 378.847 C 366.187 380.421,366.052 381.785,366.147 381.880 C 366.241 381.975,366.535 380.769,366.800 379.200 C 367.065 377.631,367.200 376.266,367.100 376.167 C 367.001 376.068,366.707 377.274,366.447 378.847 M364.038 391.200 C 363.773 392.850,363.468 394.740,363.361 395.400 C 363.227 396.223,363.278 396.412,363.525 396.000 C 364.008 395.197,364.947 389.436,364.708 388.746 C 364.604 388.446,364.302 389.550,364.038 391.200 " stroke="none" fill="#2454d4" fill-rule="evenodd"></path>
    <path id="path8" d="M154.190 1.658 C 154.036 2.570,153.390 4.854,152.755 6.733 C 151.980 9.027,151.600 10.955,151.600 12.598 C 151.600 13.944,151.240 17.005,150.800 19.400 C 150.360 21.795,150.009 24.035,150.019 24.377 C 150.047 25.279,151.853 18.535,152.960 13.400 C 153.481 10.980,154.376 7.852,154.947 6.448 C 156.576 2.448,156.781 0.000,155.487 0.000 C 154.607 0.000,154.433 0.223,154.190 1.658 M233.802 22.394 C 233.592 23.054,233.405 23.124,232.760 22.779 C 231.874 22.304,231.990 23.561,233.023 25.617 C 233.305 26.176,233.732 27.796,233.973 29.217 C 234.215 30.638,234.851 33.240,235.387 35.000 C 235.924 36.760,237.013 40.450,237.808 43.200 C 238.603 45.950,239.689 49.370,240.222 50.800 C 240.754 52.230,241.401 54.300,241.658 55.400 C 241.915 56.500,242.707 58.570,243.417 60.000 C 244.128 61.430,244.924 63.530,245.187 64.667 C 245.824 67.425,246.748 68.732,246.836 67.000 C 246.994 63.873,246.666 60.998,245.969 59.424 C 245.549 58.473,244.945 56.340,244.628 54.683 C 244.311 53.026,243.680 50.940,243.225 50.048 C 242.770 49.156,242.202 47.475,241.963 46.313 C 241.723 45.151,241.004 42.649,240.364 40.753 C 239.724 38.856,239.200 37.029,239.200 36.691 C 239.200 36.354,238.682 34.485,238.048 32.539 C 237.414 30.592,236.402 27.422,235.798 25.493 C 234.629 21.755,234.211 21.106,233.802 22.394 M128.012 148.508 C 128.002 151.355,127.805 152.485,126.965 154.508 C 125.418 158.230,125.220 159.039,124.787 163.400 C 124.319 168.116,123.763 170.736,122.708 173.200 C 122.177 174.441,121.837 176.553,121.613 180.000 C 121.381 183.575,120.938 186.254,120.058 189.400 C 119.245 192.310,118.692 195.493,118.425 198.800 C 118.192 201.690,117.671 204.897,117.189 206.400 C 116.730 207.830,116.188 210.980,115.984 213.400 C 115.425 220.026,115.231 221.478,114.377 225.400 C 113.153 231.025,111.594 243.045,111.597 246.836 C 111.600 250.072,111.395 251.159,109.459 258.200 C 108.789 260.637,108.200 273.113,108.825 271.616 C 109.052 271.074,109.426 268.104,109.657 265.016 C 110.032 259.998,110.221 259.078,111.427 256.375 C 112.642 253.654,112.816 252.789,113.165 247.775 C 113.379 244.709,113.922 240.553,114.371 238.541 C 114.821 236.528,115.303 233.288,115.441 231.341 C 115.580 229.393,116.125 225.584,116.653 222.875 C 117.181 220.167,117.784 215.937,117.994 213.475 C 118.204 211.014,118.731 207.546,119.166 205.769 C 119.600 203.991,120.135 200.481,120.354 197.969 C 120.637 194.734,121.162 192.099,122.152 188.946 C 123.072 186.017,123.639 183.277,123.809 180.946 C 123.979 178.605,124.484 176.176,125.293 173.800 C 126.347 170.706,126.562 169.356,126.823 164.200 C 126.990 160.900,127.410 157.120,127.755 155.800 C 128.622 152.487,129.030 146.733,128.468 145.763 C 128.118 145.162,128.022 145.744,128.012 148.508 M273.884 193.600 C 272.610 197.029,272.619 197.149,274.424 201.000 C 275.191 202.636,275.678 204.546,275.953 207.000 C 276.176 208.980,276.822 211.950,277.390 213.600 C 277.958 215.250,278.616 217.845,278.852 219.367 C 279.089 220.889,279.714 223.576,280.241 225.338 C 280.769 227.100,281.200 229.105,281.200 229.795 C 281.200 230.485,281.567 232.452,282.016 234.167 C 282.466 235.881,283.011 238.750,283.229 240.542 C 283.447 242.334,284.058 245.330,284.587 247.200 C 285.115 249.070,285.668 252.130,285.815 254.000 C 286.133 258.031,287.098 261.061,288.516 262.479 C 289.330 263.294,289.502 263.780,289.339 264.814 C 288.988 267.038,289.546 268.751,291.097 270.214 C 292.887 271.902,293.053 271.773,292.246 269.326 C 291.897 268.267,291.422 265.960,291.192 264.200 C 290.961 262.440,290.421 259.812,289.993 258.361 C 289.565 256.910,289.042 254.570,288.832 253.161 C 287.727 245.761,286.655 239.780,285.792 236.200 C 285.261 234.000,284.659 230.804,284.452 229.098 C 284.220 227.176,283.740 225.427,283.190 224.498 C 282.604 223.510,282.128 221.677,281.792 219.115 C 281.423 216.312,280.927 214.503,280.010 212.620 C 279.026 210.601,278.661 209.183,278.395 206.346 C 278.084 203.033,277.906 202.470,276.535 200.480 C 275.433 198.880,274.895 197.559,274.563 195.640 C 274.312 194.188,274.006 193.270,273.884 193.600 M397.187 305.614 C 396.563 306.282,395.846 307.497,395.593 308.314 C 395.340 309.131,393.778 312.718,392.121 316.284 C 388.022 325.110,389.943 326.806,394.292 318.200 C 394.848 317.100,395.615 315.750,395.997 315.200 C 396.379 314.650,397.098 313.030,397.594 311.600 C 398.089 310.170,398.834 308.628,399.248 308.174 C 399.699 307.679,400.000 306.758,400.000 305.874 C 400.000 303.971,398.823 303.862,397.187 305.614 " stroke="none" fill="#9c64c4" fill-rule="evenodd"></path>
  </g>
</svg>