<?xml version="1.0" encoding="utf-8"?>
<!DOCTYPE svg PUBLIC "-//W3C//DTD SVG 1.1//EN" "http://www.w3.org/Graphics/SVG/1.1/DTD/svg11.dtd">
<svg id="svg" version="1.1"
  xmlns="http://www.w3.org/2000/svg"
  xmlns:xlink="http://www.w3.org/1999/xlink" width="400" height="400" viewBox="0, 0, 400,400">
  <g id="svgg">
    <path id="path0" d="M76.243 51.833 C 75.838 52.887,75.971 72.271,76.390 73.374 L 76.780 74.400 87.990 74.400 C 98.695 74.400,99.236 74.436,100.006 75.206 C 101.234 76.434,101.072 148.995,99.838 150.358 C 99.098 151.176,98.755 151.200,87.781 151.200 C 77.850 151.200,76.456 151.276,76.243 151.833 C 75.838 152.887,75.971 172.271,76.390 173.374 L 76.780 174.400 112.246 174.400 C 145.554 174.400,147.744 174.357,148.243 173.700 C 148.973 172.738,149.044 152.404,148.320 151.680 C 147.972 151.332,144.985 151.199,137.420 151.195 C 131.689 151.192,126.588 151.079,126.084 150.944 C 123.917 150.363,124.000 152.373,124.000 100.453 C 124.000 74.060,123.891 52.181,123.757 51.833 C 123.386 50.866,76.614 50.866,76.243 51.833 M201.500 126.432 C 200.591 126.961,200.396 173.291,201.300 173.876 C 201.575 174.054,206.681 174.258,212.646 174.328 L 223.492 174.456 223.741 173.528 C 224.062 172.329,224.078 127.468,223.757 126.633 C 223.466 125.873,202.780 125.687,201.500 126.432 M176.183 176.499 C 176.075 176.781,176.035 181.959,176.093 188.006 L 176.200 199.000 187.674 199.106 L 199.148 199.212 199.274 197.906 C 199.343 197.188,199.310 192.010,199.200 186.400 L 199.000 176.200 187.690 176.094 C 178.793 176.010,176.338 176.097,176.183 176.499 M151.686 201.274 C 150.988 201.972,150.982 247.622,151.680 248.320 C 152.404 249.044,172.738 248.973,173.700 248.243 C 174.431 247.688,174.750 204.547,174.042 202.000 L 173.764 201.000 162.968 200.894 C 154.907 200.814,152.049 200.911,151.686 201.274 M226.417 201.567 C 226.158 202.053,226.000 206.355,226.000 212.966 L 226.000 223.585 226.900 223.805 C 227.395 223.926,232.480 223.974,238.200 223.912 L 248.600 223.800 248.600 212.400 L 248.600 201.000 237.717 200.894 C 227.279 200.792,226.818 200.819,226.417 201.567 M326.417 201.567 C 326.158 202.053,326.000 206.355,326.000 212.966 L 326.000 223.585 326.900 223.805 C 327.395 223.926,332.480 223.974,338.200 223.912 L 348.600 223.800 348.600 212.400 L 348.600 201.000 337.717 200.894 C 327.279 200.792,326.818 200.819,326.417 201.567 M251.614 226.774 C 250.996 227.928,251.057 247.697,251.680 248.320 C 252.304 248.944,272.471 249.004,273.626 248.386 C 274.947 247.679,274.808 228.123,273.474 226.870 C 272.108 225.587,252.296 225.500,251.614 226.774 M301.470 226.500 C 300.850 226.954,300.796 228.001,300.893 237.800 L 301.000 248.600 312.400 248.600 L 323.800 248.600 323.912 238.200 C 323.974 232.480,323.926 227.395,323.805 226.900 L 323.585 226.000 312.869 226.000 C 304.927 226.000,301.976 226.129,301.470 226.500 M276.243 251.833 C 275.726 253.181,275.976 273.015,276.520 273.758 C 277.035 274.463,298.273 274.662,298.965 273.969 C 299.141 273.792,299.356 255.584,299.225 251.900 C 299.189 250.879,276.634 250.812,276.243 251.833 M251.700 276.265 C 251.316 276.420,251.200 279.114,251.200 287.833 L 251.200 299.200 261.700 299.247 C 273.240 299.299,273.227 299.300,273.800 298.747 C 274.606 297.969,274.558 277.105,273.748 276.513 C 273.051 276.003,252.910 275.777,251.700 276.265 M301.073 276.261 C 300.923 276.411,300.800 281.633,300.800 287.867 L 300.800 299.200 312.406 299.200 L 324.012 299.200 323.906 287.700 L 323.800 276.200 312.573 276.094 C 306.398 276.036,301.223 276.111,301.073 276.261 M226.417 301.567 C 226.158 302.053,226.000 306.355,226.000 312.966 L 226.000 323.585 226.900 323.805 C 227.395 323.926,232.480 323.974,238.200 323.912 L 248.600 323.800 248.600 312.400 L 248.600 301.000 237.717 300.894 C 227.279 300.792,226.818 300.819,226.417 301.567 M326.486 301.274 C 326.128 301.632,326.000 304.640,326.000 312.672 L 326.000 323.585 326.900 323.805 C 327.395 323.926,332.480 323.974,338.200 323.912 L 348.600 323.800 348.600 312.400 L 348.600 301.000 337.786 300.894 C 329.711 300.814,326.849 300.911,326.486 301.274 " stroke="none" fill="#f8fbfb" fill-rule="evenodd"></path>
    <path id="path1" d="M74.784 48.900 C 72.859 50.199,72.729 51.200,72.872 63.699 L 73.000 74.872 73.944 75.636 C 74.464 76.056,75.364 76.386,75.944 76.368 L 77.000 76.337 75.940 75.949 C 74.102 75.275,73.932 74.135,73.932 62.481 C 73.932 51.159,74.138 49.693,75.818 49.048 C 77.016 48.589,123.586 48.765,124.460 49.232 C 126.450 50.297,126.400 48.979,126.400 100.173 C 126.400 147.021,126.415 147.980,127.174 148.386 C 127.651 148.642,132.019 148.800,138.592 148.800 L 149.236 148.800 150.218 149.782 C 150.758 150.322,151.209 151.177,151.220 151.682 C 151.660 171.455,151.244 175.751,148.858 176.118 C 148.043 176.243,148.140 176.294,149.277 176.340 C 151.957 176.449,152.000 176.236,152.000 162.730 C 152.000 146.611,153.354 148.006,137.700 148.002 L 127.200 148.000 127.200 99.619 C 127.200 65.358,127.072 50.957,126.761 50.274 C 125.725 48.000,125.723 48.000,99.846 48.000 L 76.118 48.000 74.784 48.900 M97.718 76.900 C 98.335 77.360,98.397 80.213,98.494 112.700 L 98.600 148.000 87.359 148.000 C 71.582 148.000,72.679 146.811,72.872 163.699 L 73.000 174.872 73.944 175.636 C 74.464 176.056,75.364 176.386,75.944 176.368 L 77.000 176.337 75.940 175.949 C 74.102 175.275,73.932 174.135,73.932 162.481 C 73.932 147.454,72.688 148.800,86.583 148.800 C 92.147 148.800,97.263 148.688,97.950 148.550 L 99.200 148.300 99.200 112.350 L 99.200 76.400 98.124 76.400 C 97.171 76.400,97.125 76.458,97.718 76.900 M199.770 123.897 C 198.513 124.784,198.366 127.763,198.483 150.100 C 198.547 162.365,198.600 172.436,198.600 172.479 C 198.600 172.522,193.428 172.657,187.107 172.779 L 175.614 173.000 174.307 174.307 L 173.000 175.614 172.779 187.107 C 172.657 193.428,172.523 198.600,172.479 198.600 C 172.436 198.600,168.126 198.541,162.900 198.470 C 152.599 198.328,149.609 198.681,148.573 200.159 C 147.871 201.162,147.713 247.151,148.403 249.636 C 149.039 251.925,149.491 252.000,162.730 252.000 C 176.236 252.000,176.449 251.957,176.340 249.277 C 176.294 248.140,176.243 248.043,176.118 248.858 C 175.754 251.223,171.777 251.607,151.682 251.218 C 151.177 251.208,150.322 250.758,149.782 250.218 L 148.800 249.236 148.806 225.118 C 148.809 211.853,148.948 200.786,149.114 200.525 C 149.824 199.408,151.913 199.200,162.402 199.200 C 170.563 199.200,173.231 199.080,173.476 198.700 C 173.654 198.425,173.858 193.217,173.928 187.127 L 174.056 176.053 175.055 175.055 L 176.053 174.056 187.127 173.928 C 193.217 173.858,198.425 173.654,198.700 173.476 C 199.091 173.224,199.200 167.976,199.200 149.465 C 199.200 128.674,199.276 125.669,199.823 124.889 C 200.516 123.899,223.047 123.462,224.809 124.405 C 226.274 125.189,226.395 127.174,226.398 150.313 C 226.400 174.590,226.354 175.164,224.318 175.981 L 223.400 176.349 224.400 176.362 C 227.145 176.397,226.988 177.904,227.109 150.438 C 227.214 126.507,227.193 125.680,226.445 124.755 L 225.672 123.800 212.936 123.697 C 205.931 123.641,200.007 123.731,199.770 123.897 M200.800 187.971 C 200.800 197.958,200.714 199.629,200.171 200.171 C 199.629 200.714,197.958 200.800,187.971 200.800 L 176.400 200.800 176.406 201.900 C 176.411 202.687,176.512 202.842,176.764 202.445 C 177.048 201.997,179.170 201.882,187.857 201.845 C 196.060 201.811,198.850 201.671,199.656 201.256 C 201.674 200.216,201.796 199.465,201.845 187.857 C 201.882 179.170,201.997 177.048,202.445 176.764 C 202.842 176.512,202.687 176.411,201.900 176.406 L 200.800 176.400 200.800 187.971 M225.489 198.918 C 223.490 199.485,223.546 199.037,223.682 213.336 L 223.800 225.672 224.744 226.436 C 225.623 227.147,226.459 227.200,236.844 227.200 L 248.000 227.200 248.002 237.700 C 248.006 253.289,246.760 252.000,261.819 252.000 L 272.800 252.000 272.800 262.377 L 272.800 272.754 261.608 272.877 L 250.417 273.000 249.308 274.109 L 248.200 275.217 248.084 286.909 L 247.968 298.600 238.084 298.467 C 227.119 298.319,224.147 298.672,223.773 300.166 C 223.659 300.625,223.618 306.551,223.682 313.336 L 223.800 325.672 224.764 326.452 C 225.681 327.194,226.332 327.227,237.903 327.116 L 250.077 327.000 251.036 325.800 L 251.996 324.600 251.998 313.733 C 251.999 307.756,252.092 302.626,252.204 302.333 C 252.368 301.905,254.350 301.823,262.304 301.917 C 274.183 302.057,276.151 301.672,276.262 299.183 C 276.302 298.277,276.258 298.145,276.134 298.800 C 275.763 300.747,275.425 300.800,263.347 300.800 C 254.746 300.800,251.970 300.919,251.724 301.300 C 251.546 301.575,251.361 306.814,251.313 312.943 C 251.221 324.818,251.232 324.749,249.149 325.826 C 247.791 326.529,228.741 326.657,226.305 325.980 C 224.032 325.349,224.000 325.157,224.000 312.249 C 224.000 297.515,222.316 299.200,237.042 299.200 L 248.307 299.200 248.548 298.300 C 248.681 297.805,248.792 292.690,248.795 286.933 C 248.802 272.622,247.558 273.849,261.940 273.967 C 271.959 274.049,272.108 274.038,273.048 273.155 L 274.000 272.261 274.000 262.339 L 274.000 252.418 273.033 251.785 C 272.213 251.247,270.597 251.159,262.333 251.201 C 256.980 251.229,252.187 251.240,251.682 251.226 C 251.177 251.212,250.322 250.758,249.782 250.218 L 248.800 249.236 248.800 238.592 C 248.800 232.019,248.642 227.651,248.386 227.174 C 247.993 226.440,247.447 226.400,237.886 226.398 C 227.439 226.395,225.107 226.121,224.405 224.809 C 224.158 224.348,224.000 219.440,224.000 212.236 L 224.000 200.418 224.956 199.792 C 226.369 198.866,249.648 199.075,250.595 200.023 C 251.123 200.552,251.231 202.328,251.308 211.823 C 251.359 217.970,251.546 223.225,251.724 223.500 C 251.970 223.880,254.747 224.001,263.324 224.006 C 275.458 224.013,275.521 224.023,275.999 226.048 L 276.318 227.400 276.359 225.980 C 276.428 223.575,276.559 223.600,263.720 223.600 L 252.000 223.600 252.000 212.076 C 252.000 199.600,251.992 199.555,249.800 198.975 C 247.900 198.473,227.229 198.424,225.489 198.918 M325.600 198.910 C 323.560 199.552,323.613 199.207,323.606 211.900 L 323.600 223.600 311.900 223.606 C 305.465 223.609,300.007 223.744,299.770 223.906 C 298.639 224.680,298.338 227.927,298.469 237.927 L 298.600 248.001 287.500 248.000 C 277.407 248.000,276.400 247.940,276.400 247.333 C 276.400 246.967,276.294 246.773,276.163 246.903 C 274.526 248.541,293.159 249.926,298.300 248.548 L 299.200 248.307 299.200 236.998 C 299.200 222.353,297.542 224.024,312.200 223.899 L 323.800 223.800 323.906 212.105 L 324.012 200.411 324.962 199.788 C 326.379 198.859,349.652 199.079,350.602 200.030 C 351.440 200.869,351.584 223.655,350.758 224.651 C 349.420 226.263,348.394 226.400,337.700 226.400 C 330.191 226.400,327.229 226.531,326.880 226.880 C 326.531 227.229,326.400 230.218,326.400 237.821 C 326.400 248.058,326.380 248.311,325.485 249.641 L 324.570 251.000 313.185 251.200 C 306.923 251.310,301.575 251.546,301.300 251.724 C 300.443 252.278,300.594 272.531,301.461 273.251 C 301.972 273.676,304.644 273.845,313.299 274.000 L 324.477 274.200 325.437 275.400 C 326.393 276.597,326.396 276.630,326.403 287.000 C 326.408 292.720,326.517 297.797,326.648 298.283 C 326.884 299.164,326.907 299.166,338.428 299.283 C 348.298 299.383,350.064 299.491,350.602 300.030 C 351.440 300.869,351.584 323.655,350.758 324.651 C 349.424 326.258,348.383 326.400,337.920 326.398 C 327.438 326.395,325.107 326.121,324.405 324.809 C 324.161 324.354,323.998 319.784,323.995 313.326 C 323.992 307.427,323.881 302.195,323.748 301.700 L 323.507 300.800 312.015 300.800 C 301.391 300.800,300.474 300.745,299.862 300.069 C 299.278 299.424,299.200 297.979,299.200 287.869 L 299.200 276.400 298.100 276.412 C 297.160 276.423,297.102 276.483,297.700 276.832 C 298.338 277.204,298.400 278.159,298.400 287.691 C 298.400 302.892,297.356 301.769,311.600 301.877 C 317.210 301.920,322.197 301.965,322.683 301.977 L 323.566 302.000 323.683 313.836 L 323.800 325.672 324.764 326.452 C 325.681 327.194,326.332 327.227,337.903 327.116 L 350.077 327.000 351.036 325.800 L 351.996 324.600 351.998 312.576 C 352.000 299.562,352.001 299.567,349.800 298.964 C 349.140 298.784,343.884 298.628,338.120 298.618 C 327.987 298.601,327.633 298.574,327.426 297.800 C 327.308 297.360,327.208 292.272,327.205 286.494 L 327.200 275.988 325.831 274.494 L 324.463 273.000 313.931 272.899 C 308.139 272.843,303.040 272.716,302.600 272.616 C 301.825 272.441,301.804 272.166,301.939 263.890 C 302.019 258.968,301.908 254.731,301.679 253.900 C 301.137 251.938,300.747 252.000,313.533 251.998 L 324.600 251.996 325.800 251.037 L 327.000 250.077 327.200 238.739 L 327.400 227.400 338.739 227.200 L 350.077 227.000 351.037 225.800 L 351.996 224.600 351.998 212.576 C 352.000 199.560,352.000 199.557,349.800 198.975 C 347.852 198.460,327.205 198.405,325.600 198.910 " stroke="none" fill="#1cd4bc" fill-rule="evenodd"></path>
    <path id="path2" d="M75.585 50.900 C 74.393 52.831,74.545 73.415,75.762 74.759 C 76.502 75.576,76.847 75.600,87.848 75.600 C 98.634 75.600,99.192 75.637,99.586 76.374 C 100.204 77.529,100.156 147.220,99.536 148.581 L 99.072 149.600 87.730 149.600 L 76.388 149.600 75.585 150.900 C 74.393 152.831,74.545 173.415,75.762 174.759 L 76.524 175.600 112.480 175.600 L 148.436 175.600 149.418 174.618 L 150.400 173.636 150.400 162.662 C 150.400 148.260,151.957 149.855,137.655 149.600 C 129.204 149.449,126.310 149.272,125.919 148.880 C 125.502 148.462,125.361 138.860,125.200 99.822 C 125.006 52.803,124.976 51.257,124.238 50.442 C 123.480 49.604,123.359 49.600,99.932 49.600 L 76.388 49.600 75.585 50.900 M123.757 51.833 C 123.891 52.181,124.000 74.060,124.000 100.453 C 124.000 152.373,123.917 150.363,126.084 150.944 C 126.588 151.079,131.689 151.192,137.420 151.195 C 144.985 151.199,147.972 151.332,148.320 151.680 C 149.044 152.404,148.973 172.738,148.243 173.700 C 147.744 174.357,145.554 174.400,112.246 174.400 L 76.780 174.400 76.390 173.374 C 75.971 172.271,75.838 152.887,76.243 151.833 C 76.456 151.276,77.850 151.200,87.781 151.200 C 98.755 151.200,99.098 151.176,99.838 150.358 C 101.072 148.995,101.234 76.434,100.006 75.206 C 99.236 74.436,98.695 74.400,87.990 74.400 L 76.780 74.400 76.390 73.374 C 75.971 72.271,75.838 52.887,76.243 51.833 C 76.614 50.866,123.386 50.866,123.757 51.833 M201.929 124.684 C 199.921 124.991,199.962 124.489,199.990 148.741 C 200.005 161.289,199.900 172.285,199.757 173.178 L 199.498 174.800 188.019 174.800 L 176.539 174.800 175.670 175.726 C 174.819 176.632,174.800 176.897,174.800 188.073 L 174.800 199.495 173.300 199.743 C 172.475 199.880,167.165 199.993,161.500 199.996 C 151.736 200.000,151.158 200.042,150.400 200.800 C 149.618 201.582,149.600 202.133,149.600 225.018 L 149.600 248.436 150.582 249.418 L 151.564 250.400 162.538 250.400 C 172.745 250.400,173.577 250.347,174.456 249.636 L 175.400 248.871 175.600 224.736 L 175.800 200.600 187.443 200.494 C 198.060 200.397,199.144 200.325,199.737 199.669 C 200.301 199.047,200.402 197.403,200.494 187.375 L 200.600 175.800 212.043 175.694 C 223.074 175.592,223.514 175.558,224.243 174.752 C 225.426 173.445,225.421 126.549,224.238 125.242 C 223.509 124.436,206.354 124.007,201.929 124.684 M223.757 126.633 C 224.078 127.468,224.062 172.329,223.741 173.528 L 223.492 174.456 212.646 174.328 C 206.681 174.258,201.575 174.054,201.300 173.876 C 200.396 173.291,200.591 126.961,201.500 126.432 C 202.780 125.687,223.466 125.873,223.757 126.633 M199.200 186.400 C 199.310 192.010,199.343 197.188,199.274 197.906 L 199.148 199.212 187.674 199.106 L 176.200 199.000 176.093 188.006 C 176.035 181.959,176.075 176.781,176.183 176.499 C 176.338 176.097,178.793 176.010,187.690 176.094 L 199.000 176.200 199.200 186.400 M236.744 199.906 C 227.080 199.999,225.619 200.095,225.144 200.667 C 224.074 201.955,224.141 223.242,225.219 224.218 C 226.026 224.949,226.815 225.007,237.341 225.112 C 247.287 225.210,248.658 225.301,249.100 225.888 C 249.472 226.382,249.600 229.362,249.600 237.495 L 249.600 248.436 250.582 249.418 L 251.564 250.400 262.156 250.400 C 268.112 250.400,273.200 250.572,273.780 250.792 L 274.812 251.185 274.706 262.892 L 274.600 274.600 263.181 274.800 C 253.137 274.976,251.632 275.085,250.681 275.709 L 249.600 276.418 249.600 287.819 L 249.600 299.220 248.574 299.610 C 247.998 299.829,242.753 300.000,236.623 300.000 C 226.954 300.000,225.635 300.076,225.149 300.661 C 224.074 301.954,224.137 323.238,225.219 324.218 C 226.082 324.999,245.637 325.679,248.268 325.019 C 250.385 324.487,250.400 324.398,250.400 312.420 C 250.400 303.862,250.518 301.200,250.913 300.872 C 251.241 300.600,255.545 300.402,262.852 300.323 C 271.756 300.227,274.423 300.080,274.933 299.656 C 275.508 299.179,275.601 297.678,275.694 287.456 L 275.800 275.800 287.400 275.693 C 297.951 275.597,299.045 275.649,299.500 276.270 C 299.872 276.778,300.000 279.844,300.000 288.253 C 300.000 296.854,300.119 299.630,300.500 299.876 C 300.775 300.054,306.220 300.290,312.600 300.400 L 324.200 300.600 324.306 312.043 C 324.441 326.583,322.902 324.964,336.738 325.119 C 351.975 325.290,350.400 326.752,350.400 312.433 C 350.400 298.418,352.044 300.024,337.567 299.899 C 331.315 299.844,325.975 299.654,325.700 299.476 C 325.319 299.230,325.200 296.452,325.200 287.846 C 325.200 273.238,326.817 274.845,311.981 274.706 L 300.600 274.600 300.494 263.048 C 300.418 254.859,300.520 251.337,300.843 250.948 C 301.208 250.508,303.481 250.399,312.349 250.394 C 318.427 250.391,323.598 250.256,323.840 250.094 C 325.051 249.285,325.200 247.881,325.200 237.255 C 325.200 227.972,325.288 226.369,325.829 225.829 C 326.369 225.288,327.972 225.200,337.255 225.200 C 347.881 225.200,349.285 225.051,350.094 223.840 C 350.847 222.712,350.433 201.354,349.644 200.639 C 348.569 199.667,326.176 199.653,325.204 200.624 C 324.699 201.128,324.580 203.127,324.478 212.786 L 324.355 224.345 312.791 224.473 C 302.779 224.583,301.141 224.687,300.580 225.248 C 300.014 225.815,299.939 227.239,299.980 236.687 C 300.007 243.092,299.862 247.910,299.623 248.539 L 299.220 249.600 287.610 249.600 C 281.224 249.600,275.964 249.555,275.921 249.500 C 275.877 249.445,275.742 244.141,275.621 237.713 C 275.422 227.210,275.328 225.955,274.686 225.313 C 274.041 224.668,272.876 224.588,262.495 224.477 C 254.167 224.387,250.935 224.222,250.715 223.877 C 250.549 223.614,250.409 218.433,250.406 212.362 C 250.398 198.209,252.098 199.759,236.744 199.906 M174.042 202.000 C 174.750 204.547,174.431 247.688,173.700 248.243 C 172.738 248.973,152.404 249.044,151.680 248.320 C 150.982 247.622,150.988 201.972,151.686 201.274 C 152.049 200.911,154.907 200.814,162.968 200.894 L 173.764 201.000 174.042 202.000 M248.600 212.400 L 248.600 223.800 238.200 223.912 C 232.480 223.974,227.395 223.926,226.900 223.805 L 226.000 223.585 226.000 212.966 C 226.000 206.355,226.158 202.053,226.417 201.567 C 226.818 200.819,227.279 200.792,237.717 200.894 L 248.600 201.000 248.600 212.400 M348.600 212.400 L 348.600 223.800 338.200 223.912 C 332.480 223.974,327.395 223.926,326.900 223.805 L 326.000 223.585 326.000 212.966 C 326.000 206.355,326.158 202.053,326.417 201.567 C 326.818 200.819,327.279 200.792,337.717 200.894 L 348.600 201.000 348.600 212.400 M273.474 226.870 C 274.808 228.123,274.947 247.679,273.626 248.386 C 272.471 249.004,252.304 248.944,251.680 248.320 C 251.057 247.697,250.996 227.928,251.614 226.774 C 252.296 225.500,272.108 225.587,273.474 226.870 M323.805 226.900 C 323.926 227.395,323.974 232.480,323.912 238.200 L 323.800 248.600 312.400 248.600 L 301.000 248.600 300.893 237.800 C 300.796 228.001,300.850 226.954,301.470 226.500 C 301.976 226.129,304.927 226.000,312.869 226.000 L 323.585 226.000 323.805 226.900 M299.225 251.900 C 299.356 255.584,299.141 273.792,298.965 273.969 C 298.273 274.662,277.035 274.463,276.520 273.758 C 275.976 273.015,275.726 253.181,276.243 251.833 C 276.634 250.812,299.189 250.879,299.225 251.900 M273.748 276.513 C 274.558 277.105,274.606 297.969,273.800 298.747 C 273.227 299.300,273.240 299.299,261.700 299.247 L 251.200 299.200 251.200 287.833 C 251.200 279.114,251.316 276.420,251.700 276.265 C 252.910 275.777,273.051 276.003,273.748 276.513 M323.906 287.700 L 324.012 299.200 312.406 299.200 L 300.800 299.200 300.800 287.867 C 300.800 281.633,300.923 276.411,301.073 276.261 C 301.223 276.111,306.398 276.036,312.573 276.094 L 323.800 276.200 323.906 287.700 M248.600 312.400 L 248.600 323.800 238.200 323.912 C 232.480 323.974,227.395 323.926,226.900 323.805 L 226.000 323.585 226.000 312.966 C 226.000 306.355,226.158 302.053,226.417 301.567 C 226.818 300.819,227.279 300.792,237.717 300.894 L 248.600 301.000 248.600 312.400 M348.600 312.400 L 348.600 323.800 338.200 323.912 C 332.480 323.974,327.395 323.926,326.900 323.805 L 326.000 323.585 326.000 312.672 C 326.000 304.640,326.128 301.632,326.486 301.274 C 326.849 300.911,329.711 300.814,337.786 300.894 L 348.600 301.000 348.600 312.400 " stroke="none" fill="#8ceddd" fill-rule="evenodd"></path>
    <path id="path3" d="M75.692 49.068 C 73.969 49.761,72.901 70.781,74.404 74.409 C 75.157 76.228,76.355 76.400,88.260 76.400 L 99.200 76.400 99.200 112.350 L 99.200 148.300 97.950 148.550 C 97.262 148.688,92.147 148.800,86.583 148.800 C 72.688 148.800,73.932 147.454,73.932 162.481 C 73.932 174.684,74.051 175.350,76.348 176.020 C 79.546 176.952,149.446 176.332,150.415 175.363 C 151.203 174.575,151.521 165.226,151.220 151.682 C 151.209 151.177,150.758 150.322,150.218 149.782 L 149.236 148.800 138.592 148.800 C 132.019 148.800,127.651 148.642,127.174 148.386 C 126.415 147.980,126.400 147.021,126.400 100.173 C 126.400 48.979,126.450 50.297,124.460 49.232 C 123.640 48.793,76.766 48.635,75.692 49.068 M124.238 50.442 C 124.976 51.257,125.006 52.803,125.200 99.822 C 125.361 138.860,125.502 148.462,125.919 148.880 C 126.310 149.272,129.204 149.449,137.655 149.600 C 151.957 149.855,150.400 148.260,150.400 162.662 L 150.400 173.636 149.418 174.618 L 148.436 175.600 112.480 175.600 L 76.524 175.600 75.762 174.759 C 74.545 173.415,74.393 152.831,75.585 150.900 L 76.388 149.600 87.730 149.600 L 99.072 149.600 99.536 148.581 C 100.156 147.220,100.204 77.529,99.586 76.374 C 99.192 75.637,98.634 75.600,87.848 75.600 C 76.847 75.600,76.502 75.576,75.762 74.759 C 74.545 73.415,74.393 52.831,75.585 50.900 L 76.388 49.600 99.932 49.600 C 123.359 49.600,123.480 49.604,124.238 50.442 M199.823 124.889 C 199.276 125.669,199.200 128.674,199.200 149.465 C 199.200 167.976,199.091 173.224,198.700 173.476 C 198.425 173.654,193.217 173.858,187.127 173.928 L 176.053 174.056 175.055 175.055 L 174.056 176.053 173.928 187.127 C 173.858 193.217,173.654 198.425,173.476 198.700 C 173.231 199.080,170.563 199.200,162.402 199.200 C 151.913 199.200,149.824 199.408,149.114 200.525 C 148.948 200.786,148.809 211.853,148.806 225.118 L 148.800 249.236 149.782 250.218 C 150.322 250.758,151.177 251.208,151.682 251.218 C 165.569 251.487,174.603 251.175,175.378 250.400 C 176.187 249.592,176.202 249.182,176.315 225.189 L 176.429 200.800 187.986 200.800 C 197.959 200.800,199.629 200.714,200.171 200.171 C 200.714 199.629,200.800 197.958,200.800 187.971 L 200.800 176.400 211.974 176.400 C 224.257 176.400,224.952 176.290,225.819 174.215 C 226.541 172.489,226.687 128.851,225.980 126.305 C 225.349 124.032,225.157 124.000,212.249 124.000 C 200.505 124.000,200.442 124.004,199.823 124.889 M224.238 125.242 C 225.421 126.549,225.426 173.445,224.243 174.752 C 223.514 175.558,223.074 175.592,212.043 175.694 L 200.600 175.800 200.494 187.375 C 200.402 197.403,200.301 199.047,199.737 199.669 C 199.144 200.325,198.060 200.397,187.443 200.494 L 175.800 200.600 175.600 224.736 L 175.400 248.871 174.456 249.636 C 173.577 250.347,172.745 250.400,162.538 250.400 L 151.564 250.400 150.582 249.418 L 149.600 248.436 149.600 225.018 C 149.600 202.133,149.618 201.582,150.400 200.800 C 151.158 200.042,151.736 200.000,161.500 199.996 C 167.165 199.993,172.475 199.880,173.300 199.743 L 174.800 199.495 174.800 188.073 C 174.800 176.897,174.819 176.632,175.670 175.726 L 176.539 174.800 188.019 174.800 L 199.498 174.800 199.757 173.178 C 199.900 172.285,200.005 161.289,199.990 148.741 C 199.971 132.469,200.092 125.771,200.411 125.387 C 201.508 124.065,223.055 123.935,224.238 125.242 M224.900 199.810 C 223.900 200.516,223.454 223.032,224.405 224.809 C 225.107 226.121,227.439 226.395,237.886 226.398 C 247.447 226.400,247.993 226.440,248.386 227.174 C 248.642 227.651,248.800 232.019,248.800 238.592 L 248.800 249.236 249.782 250.218 C 250.322 250.758,251.177 251.212,251.682 251.226 C 252.187 251.240,256.980 251.229,262.333 251.201 C 270.597 251.159,272.213 251.247,273.033 251.785 L 274.000 252.418 274.000 262.339 L 274.000 272.261 273.048 273.155 C 272.108 274.038,271.959 274.049,261.940 273.967 C 247.558 273.849,248.802 272.622,248.795 286.933 C 248.792 292.690,248.681 297.805,248.548 298.300 L 248.307 299.200 237.042 299.200 C 222.316 299.200,224.000 297.515,224.000 312.249 C 224.000 325.157,224.032 325.349,226.305 325.980 C 228.741 326.657,247.791 326.529,249.149 325.826 C 251.232 324.749,251.221 324.818,251.313 312.943 C 251.361 306.814,251.546 301.575,251.724 301.300 C 251.970 300.919,254.746 300.800,263.347 300.800 C 272.470 300.800,274.797 300.691,275.424 300.233 C 276.156 299.698,276.207 299.006,276.327 288.033 L 276.455 276.400 287.827 276.400 L 299.200 276.400 299.200 287.938 C 299.200 298.608,299.255 299.526,299.931 300.138 C 300.576 300.721,302.018 300.800,312.085 300.800 L 323.507 300.800 323.748 301.700 C 323.881 302.195,323.992 307.427,323.995 313.326 C 323.998 319.784,324.161 324.354,324.405 324.809 C 325.107 326.121,327.438 326.395,337.920 326.398 C 348.383 326.400,349.424 326.258,350.758 324.651 C 351.584 323.655,351.440 300.869,350.602 300.030 C 350.064 299.491,348.298 299.383,338.428 299.283 C 326.907 299.166,326.884 299.164,326.648 298.283 C 326.517 297.797,326.408 292.720,326.403 287.000 C 326.396 276.630,326.393 276.597,325.437 275.400 L 324.477 274.200 313.299 274.000 C 304.644 273.845,301.972 273.676,301.461 273.251 C 300.594 272.531,300.443 252.278,301.300 251.724 C 301.575 251.546,306.923 251.310,313.185 251.200 L 324.570 251.000 325.485 249.641 C 326.380 248.311,326.400 248.058,326.400 237.821 C 326.400 230.218,326.531 227.229,326.880 226.880 C 327.229 226.531,330.191 226.400,337.700 226.400 C 348.394 226.400,349.420 226.263,350.758 224.651 C 351.584 223.655,351.440 200.869,350.602 200.030 C 349.652 199.079,326.379 198.859,324.962 199.788 L 324.012 200.411 323.906 212.105 L 323.800 223.800 312.200 223.899 C 297.542 224.024,299.200 222.353,299.200 236.998 L 299.200 248.307 298.300 248.548 C 296.407 249.055,276.401 248.829,276.375 248.300 C 276.362 248.025,276.362 243.300,276.377 237.800 C 276.404 227.851,276.138 224.987,275.129 224.348 C 274.838 224.163,269.526 224.009,263.324 224.006 C 254.747 224.001,251.970 223.880,251.724 223.500 C 251.546 223.225,251.359 217.970,251.308 211.823 C 251.231 202.328,251.123 200.552,250.595 200.023 C 249.641 199.068,226.226 198.874,224.900 199.810 M249.700 200.723 C 250.335 201.268,250.401 202.350,250.406 212.362 C 250.409 218.433,250.549 223.614,250.715 223.877 C 250.935 224.222,254.167 224.387,262.495 224.477 C 272.876 224.588,274.041 224.668,274.686 225.313 C 275.328 225.955,275.422 227.210,275.621 237.713 C 275.742 244.141,275.877 249.445,275.921 249.500 C 275.964 249.555,281.224 249.600,287.610 249.600 L 299.220 249.600 299.623 248.539 C 299.862 247.910,300.007 243.092,299.980 236.687 C 299.939 227.239,300.014 225.815,300.580 225.248 C 301.141 224.687,302.779 224.583,312.791 224.473 L 324.355 224.345 324.478 212.786 C 324.580 203.127,324.699 201.128,325.204 200.624 C 326.176 199.653,348.569 199.667,349.644 200.639 C 350.433 201.354,350.847 222.712,350.094 223.840 C 349.285 225.051,347.881 225.200,337.255 225.200 C 327.972 225.200,326.369 225.288,325.829 225.829 C 325.288 226.369,325.200 227.972,325.200 237.255 C 325.200 247.881,325.051 249.285,323.840 250.094 C 323.598 250.256,318.427 250.391,312.349 250.394 C 303.481 250.399,301.208 250.508,300.843 250.948 C 300.520 251.337,300.418 254.859,300.494 263.048 L 300.600 274.600 311.981 274.706 C 326.817 274.845,325.200 273.238,325.200 287.846 C 325.200 296.452,325.319 299.230,325.700 299.476 C 325.975 299.654,331.315 299.844,337.567 299.899 C 352.044 300.024,350.400 298.418,350.400 312.433 C 350.400 326.752,351.975 325.290,336.738 325.119 C 322.902 324.964,324.441 326.583,324.306 312.043 L 324.200 300.600 312.600 300.400 C 306.220 300.290,300.775 300.054,300.500 299.876 C 300.119 299.630,300.000 296.854,300.000 288.253 C 300.000 279.844,299.872 276.778,299.500 276.270 C 299.045 275.649,297.951 275.597,287.400 275.693 L 275.800 275.800 275.694 287.456 C 275.601 297.678,275.508 299.179,274.933 299.656 C 274.423 300.080,271.756 300.227,262.852 300.323 C 255.545 300.402,251.241 300.600,250.913 300.872 C 250.518 301.200,250.400 303.862,250.400 312.420 C 250.400 324.398,250.385 324.487,248.268 325.019 C 245.637 325.679,226.082 324.999,225.219 324.218 C 224.137 323.238,224.074 301.954,225.149 300.661 C 225.635 300.076,226.954 300.000,236.623 300.000 C 242.753 300.000,247.998 299.829,248.574 299.610 L 249.600 299.220 249.600 287.819 L 249.600 276.418 250.681 275.709 C 251.632 275.085,253.137 274.976,263.181 274.800 L 274.600 274.600 274.706 262.892 L 274.812 251.185 273.780 250.792 C 273.200 250.572,268.112 250.400,262.156 250.400 L 251.564 250.400 250.582 249.418 L 249.600 248.436 249.600 237.495 C 249.600 229.362,249.472 226.382,249.100 225.888 C 248.658 225.301,247.287 225.210,237.341 225.112 C 226.815 225.007,226.026 224.949,225.219 224.218 C 224.141 223.242,224.074 201.955,225.144 200.667 C 225.619 200.095,227.080 199.999,236.744 199.906 C 248.520 199.793,248.625 199.800,249.700 200.723 " stroke="none" fill="#44dcc4" fill-rule="evenodd"></path>
    <path id="path4" d="M0.000 200.000 L 0.000 400.000 200.000 400.000 L 400.000 400.000 400.000 200.000 L 400.000 0.000 200.000 0.000 L 0.000 0.000 0.000 200.000 M124.400 47.476 C 124.400 47.764,124.791 48.000,125.269 48.000 C 127.770 48.000,127.600 44.471,127.600 96.308 L 127.600 143.292 129.100 144.683 C 129.925 145.448,131.017 146.238,131.526 146.437 C 133.085 147.048,145.625 146.886,146.865 146.239 C 147.858 145.721,148.005 145.761,149.020 146.821 C 149.620 147.447,150.490 148.013,150.955 148.079 C 151.586 148.169,151.832 148.532,151.926 149.508 C 151.995 150.227,152.194 150.727,152.368 150.620 C 153.292 150.048,154.426 152.259,153.812 153.436 C 152.966 155.058,152.927 168.972,153.763 170.973 C 154.304 172.269,154.281 172.364,153.163 173.435 C 152.523 174.048,152.000 174.963,152.000 175.467 C 152.000 176.087,151.708 176.456,151.100 176.605 C 149.642 176.963,73.298 176.632,72.933 176.267 C 72.750 176.083,72.600 169.946,72.600 162.628 C 72.600 148.397,72.654 148.000,74.585 148.000 C 75.152 148.000,75.643 147.624,75.947 146.956 C 76.337 146.102,76.584 145.971,77.311 146.235 C 79.147 146.902,92.270 146.888,93.566 146.217 C 95.445 145.246,96.800 145.397,96.800 146.576 C 96.800 147.113,96.935 147.636,97.100 147.738 C 97.265 147.840,97.353 131.931,97.296 112.384 L 97.191 76.844 85.228 76.722 C 78.649 76.655,73.116 76.450,72.933 76.267 C 72.750 76.083,72.600 69.946,72.600 62.628 C 72.600 48.397,72.654 48.000,74.585 48.000 C 75.152 48.000,75.643 47.624,75.947 46.956 C 76.339 46.096,76.579 45.971,77.311 46.247 C 78.950 46.864,121.256 46.873,122.400 46.257 C 123.462 45.685,124.400 46.257,124.400 47.476 M227.357 124.233 C 227.767 125.302,227.624 175.343,227.209 176.000 C 226.889 176.506,224.995 176.619,215.056 176.722 C 203.319 176.844,203.281 176.847,203.046 177.722 C 202.917 178.205,202.808 183.522,202.805 189.537 C 202.800 200.271,202.785 200.479,201.969 200.692 C 201.512 200.812,200.977 201.335,200.779 201.855 L 200.420 202.800 189.510 202.805 C 183.509 202.808,178.195 202.919,177.700 203.052 L 176.800 203.293 176.800 227.014 C 176.800 253.222,176.893 252.000,174.891 252.000 C 174.107 252.000,173.588 252.122,173.737 252.270 C 174.574 253.107,172.321 254.326,170.977 253.764 C 168.962 252.923,155.060 252.965,153.425 253.818 C 152.305 254.402,152.201 254.383,151.234 253.415 C 150.496 252.678,150.380 252.384,150.809 252.343 C 151.134 252.312,150.680 252.177,149.800 252.043 C 148.573 251.857,148.172 251.603,148.079 250.955 C 148.013 250.490,147.447 249.620,146.821 249.020 C 145.761 248.005,145.721 247.858,146.239 246.865 C 146.694 245.993,146.796 241.751,146.798 223.497 L 146.800 201.193 148.027 199.497 C 149.697 197.188,149.235 197.267,161.600 197.168 C 167.650 197.120,172.085 197.003,171.455 196.909 L 170.310 196.738 171.327 195.669 L 172.345 194.600 172.472 184.314 C 172.635 171.206,171.206 172.635,184.314 172.472 L 194.600 172.345 195.669 171.327 L 196.738 170.310 196.909 171.455 C 197.003 172.085,197.107 161.935,197.140 148.900 C 197.199 125.775,197.219 125.181,198.000 124.400 C 199.109 123.291,226.935 123.133,227.357 124.233 M251.018 198.182 C 251.558 198.722,252.000 199.526,252.000 199.969 C 252.000 200.521,252.189 200.702,252.600 200.545 C 253.123 200.344,253.200 201.508,253.200 209.577 C 253.200 217.004,253.318 219.068,253.797 219.993 C 254.359 221.080,254.334 221.217,253.366 222.368 L 252.339 223.588 264.469 223.694 L 276.600 223.800 276.800 235.733 L 277.000 247.666 277.932 246.673 C 278.791 245.758,278.947 245.724,279.932 246.238 C 281.456 247.033,292.195 247.003,293.600 246.200 C 295.426 245.156,296.800 245.414,296.800 246.800 C 296.800 247.460,296.935 248.000,297.100 248.000 C 297.265 248.000,297.350 242.912,297.288 236.693 C 297.196 227.327,297.276 225.249,297.756 224.592 C 298.306 223.839,298.959 223.790,310.867 223.600 L 323.400 223.400 323.600 210.867 C 323.789 199.049,323.844 198.302,324.576 197.767 C 325.207 197.307,327.672 197.200,337.695 197.200 L 350.036 197.200 351.018 198.182 C 351.558 198.722,352.000 199.526,352.000 199.969 C 352.000 200.521,352.189 200.702,352.600 200.545 C 353.124 200.344,353.200 201.618,353.200 210.570 C 353.200 218.612,353.325 221.125,353.779 222.210 C 354.374 223.634,353.502 224.881,352.392 224.195 C 352.164 224.054,352.000 224.544,352.000 225.362 C 352.000 227.488,351.482 227.600,341.689 227.600 C 327.895 227.600,327.600 227.895,327.600 241.689 C 327.600 251.482,327.488 252.000,325.362 252.000 C 324.544 252.000,324.054 252.164,324.195 252.392 C 324.881 253.502,323.634 254.374,322.210 253.779 C 320.256 252.962,308.237 252.979,306.800 253.800 C 305.024 254.815,303.280 254.581,303.087 253.300 C 302.995 252.695,302.917 256.790,302.913 262.400 C 302.909 268.010,303.017 271.973,303.153 271.207 L 303.400 269.815 304.335 271.007 L 305.271 272.200 315.622 272.400 C 328.795 272.655,327.367 271.249,327.520 284.114 L 327.639 294.200 328.870 295.471 L 330.101 296.742 328.750 296.907 C 328.008 296.998,332.493 297.101,338.718 297.136 L 350.036 297.200 351.018 298.182 C 351.558 298.722,352.000 299.526,352.000 299.969 C 352.000 300.521,352.189 300.702,352.600 300.545 C 353.124 300.344,353.200 301.618,353.200 310.570 C 353.200 318.612,353.325 321.125,353.779 322.210 C 354.374 323.634,353.502 324.881,352.392 324.195 C 352.164 324.054,352.000 324.544,352.000 325.362 C 352.000 326.347,351.767 326.897,351.226 327.186 C 350.394 327.631,325.361 327.790,324.233 327.357 C 323.675 327.143,323.600 325.696,323.600 315.204 L 323.600 303.293 322.700 303.052 C 322.205 302.919,316.899 302.808,310.909 302.805 L 300.018 302.800 299.363 301.800 C 299.003 301.250,298.478 300.800,298.197 300.800 C 297.286 300.800,297.200 299.705,297.200 288.167 L 297.200 276.800 287.000 276.800 L 276.800 276.800 276.800 288.626 C 276.800 300.293,276.664 301.676,275.440 302.494 C 275.198 302.656,269.870 302.817,263.600 302.854 C 257.330 302.890,252.695 302.995,253.300 303.087 C 254.581 303.280,254.815 305.024,253.800 306.800 C 252.979 308.237,252.962 320.256,253.779 322.210 C 254.374 323.634,253.502 324.881,252.392 324.195 C 252.164 324.054,252.000 324.544,252.000 325.362 C 252.000 326.347,251.767 326.897,251.226 327.186 C 250.394 327.631,225.361 327.790,224.233 327.357 C 223.133 326.935,223.291 299.109,224.400 298.000 C 225.160 297.240,225.779 297.197,236.700 297.136 C 243.025 297.101,247.615 296.999,246.900 296.911 C 245.389 296.723,245.161 295.609,246.217 293.566 C 246.888 292.270,246.902 279.147,246.235 277.311 C 245.971 276.584,246.102 276.337,246.956 275.947 C 247.624 275.643,248.000 275.152,248.000 274.585 C 248.000 272.761,248.726 272.613,258.760 272.391 C 272.014 272.097,272.400 271.807,272.400 262.135 L 272.400 256.694 270.935 255.313 C 268.827 253.325,268.244 253.200,261.074 253.202 C 256.040 253.204,254.339 253.341,253.425 253.818 C 252.305 254.402,252.201 254.383,251.234 253.415 C 250.496 252.678,250.380 252.384,250.809 252.343 C 251.134 252.312,250.680 252.177,249.800 252.043 C 248.573 251.857,248.172 251.603,248.079 250.955 C 248.013 250.490,247.447 249.620,246.821 249.020 C 245.761 248.005,245.721 247.858,246.239 246.865 C 246.886 245.625,247.048 233.085,246.437 231.526 C 246.238 231.017,245.448 229.925,244.683 229.100 L 243.292 227.600 234.079 227.600 C 229.011 227.600,224.581 227.491,224.233 227.357 C 223.133 226.935,223.291 199.109,224.400 198.000 C 225.166 197.234,225.733 197.200,237.618 197.200 L 250.036 197.200 251.018 198.182 " stroke="none" fill="#04d4b4" fill-rule="evenodd"></path>
    <path id="path5" d="M122.400 46.253 C 121.013 46.995,79.394 47.053,77.775 46.316 C 76.737 45.843,75.600 46.554,75.600 47.676 C 75.600 47.854,86.580 48.000,100.000 48.000 C 125.608 48.000,125.267 48.024,123.900 46.336 C 123.472 45.807,123.256 45.795,122.400 46.253 M127.600 145.786 L 127.600 148.000 138.875 148.000 L 150.150 148.000 149.040 146.842 C 148.005 145.761,147.859 145.721,146.865 146.239 C 143.920 147.776,130.504 146.802,129.483 144.977 C 128.463 143.155,127.600 143.526,127.600 145.786 M93.600 146.200 C 92.283 146.953,79.381 147.048,77.775 146.316 C 76.737 145.843,75.600 146.554,75.600 147.676 C 75.600 147.854,80.429 148.000,86.331 148.000 L 97.061 148.000 96.885 146.800 C 96.683 145.422,95.377 145.184,93.600 146.200 M152.400 162.179 L 152.400 174.139 153.364 173.233 C 154.274 172.379,154.297 172.250,153.764 170.977 C 152.923 168.962,152.965 155.060,153.818 153.425 C 154.402 152.305,154.383 152.201,153.415 151.234 L 152.400 150.218 152.400 162.179 M195.600 171.400 L 194.661 172.400 195.730 172.400 C 196.605 172.400,196.800 172.217,196.800 171.400 C 196.800 170.850,196.741 170.400,196.670 170.400 C 196.598 170.400,196.117 170.850,195.600 171.400 M171.200 195.800 L 170.261 196.800 171.330 196.800 C 172.205 196.800,172.400 196.617,172.400 195.800 C 172.400 195.250,172.341 194.800,172.270 194.800 C 172.198 194.800,171.717 195.250,171.200 195.800 M147.280 200.480 C 146.918 200.842,146.799 206.478,146.798 223.380 C 146.796 241.734,146.694 245.993,146.239 246.865 C 145.721 247.859,145.761 248.005,146.842 249.040 L 148.000 250.150 148.000 225.075 C 148.000 211.284,147.946 200.000,147.880 200.000 C 147.814 200.000,147.544 200.216,147.280 200.480 M252.413 211.900 L 252.425 223.400 253.412 222.279 C 254.341 221.223,254.363 221.089,253.799 219.998 C 253.318 219.067,253.200 217.028,253.200 209.620 C 253.200 203.740,253.055 200.400,252.800 200.400 C 252.542 200.400,252.404 204.492,252.413 211.900 M352.400 212.400 C 352.400 219.000,352.502 224.400,352.626 224.400 C 353.892 224.400,354.339 223.551,353.779 222.210 C 353.325 221.125,353.200 218.617,353.200 210.613 C 353.200 204.071,353.056 200.400,352.800 200.400 C 352.542 200.400,352.400 204.667,352.400 212.400 M243.991 228.383 C 244.221 228.813,244.665 229.309,244.977 229.483 C 246.802 230.504,247.776 243.920,246.239 246.865 C 245.721 247.859,245.761 248.005,246.842 249.040 L 248.000 250.150 248.000 238.875 L 248.000 227.600 245.786 227.600 C 243.712 227.600,243.598 227.650,243.991 228.383 M327.600 230.000 C 327.600 232.804,327.747 232.924,328.699 230.902 C 329.165 229.913,329.913 229.165,330.902 228.699 C 332.924 227.747,332.804 227.600,330.000 227.600 L 327.600 227.600 327.600 230.000 M277.760 246.842 L 276.650 248.000 286.725 248.000 L 296.800 248.000 296.800 246.800 C 296.800 245.414,295.426 245.156,293.600 246.200 C 292.197 247.002,281.456 247.033,279.935 246.239 C 278.941 245.721,278.795 245.761,277.760 246.842 M151.234 253.415 C 152.201 254.383,152.305 254.402,153.425 253.818 C 155.060 252.965,168.962 252.923,170.977 253.764 C 172.250 254.297,172.379 254.274,173.233 253.364 L 174.139 252.400 162.179 252.400 L 150.218 252.400 151.234 253.415 M251.234 253.415 C 252.201 254.383,252.305 254.402,253.425 253.818 C 256.625 252.149,269.727 253.195,270.803 255.205 C 271.676 256.836,272.400 256.466,272.400 254.387 L 272.400 252.400 261.309 252.400 L 250.218 252.400 251.234 253.415 M303.200 253.400 C 303.200 254.585,305.065 254.792,306.800 253.800 C 308.237 252.979,320.256 252.962,322.210 253.779 C 323.551 254.339,324.400 253.892,324.400 252.626 C 324.400 252.502,319.630 252.400,313.800 252.400 L 303.200 252.400 303.200 253.400 M271.487 269.287 C 271.028 270.246,270.246 271.028,269.287 271.487 L 267.800 272.200 269.944 272.322 C 271.124 272.390,272.169 272.365,272.267 272.267 C 272.365 272.169,272.390 271.124,272.322 269.944 L 272.200 267.800 271.487 269.287 M303.200 271.200 C 303.200 272.267,303.333 272.400,304.403 272.400 L 305.606 272.400 304.537 271.200 C 303.949 270.540,303.408 270.000,303.334 270.000 C 303.260 270.000,303.200 270.540,303.200 271.200 M246.592 276.156 C 245.935 276.637,245.897 276.857,246.316 277.775 C 247.048 279.381,246.953 292.283,246.200 293.600 C 245.156 295.426,245.414 296.800,246.800 296.800 L 248.000 296.800 248.000 286.200 C 248.000 280.370,247.854 275.600,247.676 275.600 C 247.499 275.600,247.011 275.850,246.592 276.156 M327.600 295.600 C 327.600 296.682,327.725 296.800,328.875 296.800 L 330.150 296.800 329.000 295.600 C 328.368 294.940,327.794 294.400,327.725 294.400 C 327.656 294.400,327.600 294.940,327.600 295.600 M352.400 312.400 C 352.400 319.000,352.502 324.400,352.626 324.400 C 353.892 324.400,354.339 323.551,353.779 322.210 C 353.325 321.125,353.200 318.617,353.200 310.613 C 353.200 304.071,353.056 300.400,352.800 300.400 C 352.542 300.400,352.400 304.667,352.400 312.400 M252.400 313.800 C 252.400 319.630,252.502 324.400,252.626 324.400 C 253.892 324.400,254.339 323.551,253.779 322.210 C 252.962 320.256,252.979 308.237,253.800 306.800 C 254.792 305.065,254.585 303.200,253.400 303.200 L 252.400 303.200 252.400 313.800 " stroke="none" fill="#04d4ac" fill-rule="evenodd"></path>
    <path id="path6" d="" stroke="none" fill="#24e8b0" fill-rule="evenodd"></path>
    <path id="path7" d="" stroke="none" fill="#04ecb0" fill-rule="evenodd"></path>
    <path id="path8" d="M73.149 48.661 C 72.523 49.416,72.318 75.650,72.933 76.267 C 73.116 76.450,78.650 76.655,85.231 76.722 L 97.196 76.844 97.298 112.316 C 97.388 143.475,97.473 147.803,98.000 147.905 C 98.972 148.092,98.692 77.626,97.718 76.900 C 97.219 76.528,94.207 76.400,85.968 76.400 C 75.658 76.400,74.823 76.347,73.944 75.636 L 73.000 74.872 72.872 63.699 C 72.729 51.200,72.859 50.199,74.784 48.900 L 76.118 48.000 74.908 48.000 C 74.243 48.000,73.451 48.298,73.149 48.661 M125.082 48.690 C 127.064 49.677,126.989 47.864,127.203 99.400 L 127.406 148.200 127.503 98.762 C 127.611 43.647,127.827 47.963,124.969 48.026 L 123.800 48.051 125.082 48.690 M198.000 124.400 C 197.218 125.182,197.200 125.733,197.200 148.773 L 197.200 172.345 185.614 172.473 C 175.130 172.588,173.959 172.668,173.314 173.314 C 172.668 173.959,172.588 175.129,172.473 185.596 L 172.345 197.165 160.949 197.283 L 149.553 197.400 148.786 198.400 C 148.363 198.950,148.014 199.755,148.009 200.189 C 148.000 200.960,148.013 200.959,148.573 200.159 C 149.609 198.681,152.599 198.328,162.900 198.470 C 168.126 198.541,172.436 198.600,172.479 198.600 C 172.523 198.600,172.657 193.428,172.779 187.107 L 173.000 175.614 174.307 174.307 L 175.614 173.000 187.107 172.779 C 193.428 172.657,198.600 172.522,198.600 172.479 C 198.600 172.436,198.547 162.365,198.483 150.100 C 198.366 127.763,198.514 124.766,199.770 123.906 C 200.030 123.729,199.922 123.610,199.500 123.606 C 199.115 123.603,198.440 123.960,198.000 124.400 M225.474 124.003 C 227.213 124.704,227.223 124.858,227.109 150.573 C 227.002 174.632,226.983 175.179,226.200 175.770 C 225.532 176.275,223.551 176.378,214.200 176.393 C 208.040 176.404,202.750 176.570,202.445 176.764 C 201.997 177.048,201.882 179.170,201.845 187.857 C 201.782 202.931,202.931 201.782,187.857 201.845 C 179.170 201.882,177.048 201.997,176.764 202.445 C 176.570 202.750,176.409 213.745,176.406 226.877 L 176.400 250.755 175.511 251.377 C 174.625 251.998,174.625 252.000,175.468 252.000 C 176.800 252.000,176.800 252.002,176.800 227.014 L 176.800 203.293 177.700 203.052 C 178.195 202.919,183.509 202.808,189.510 202.805 L 200.420 202.800 200.779 201.855 C 200.977 201.335,201.512 200.812,201.969 200.692 C 202.785 200.479,202.800 200.271,202.805 189.537 C 202.808 183.522,202.917 178.205,203.046 177.722 C 203.281 176.847,203.319 176.844,215.056 176.722 C 224.995 176.619,226.889 176.506,227.209 176.000 C 227.624 175.343,227.767 125.302,227.357 124.233 C 227.204 123.833,226.652 123.609,225.857 123.625 C 224.730 123.648,224.690 123.687,225.474 124.003 M73.149 148.661 C 72.523 149.416,72.318 175.651,72.933 176.267 C 73.298 176.632,149.642 176.963,151.100 176.605 C 151.694 176.460,152.000 176.085,152.000 175.503 L 152.000 174.622 151.377 175.511 L 150.755 176.400 112.822 176.400 C 76.078 176.400,74.859 176.376,73.944 175.636 L 73.000 174.872 72.872 163.699 C 72.729 151.200,72.859 150.199,74.784 148.900 L 76.118 148.000 74.908 148.000 C 74.243 148.000,73.451 148.298,73.149 148.661 M149.837 148.416 C 150.517 148.622,151.278 149.197,151.529 149.695 C 151.964 150.559,151.981 150.545,151.892 149.400 C 151.807 148.297,151.670 148.194,150.200 148.121 C 148.627 148.043,148.621 148.048,149.837 148.416 M152.177 162.600 C 152.177 169.200,152.232 171.956,152.299 168.725 C 152.366 165.493,152.366 160.093,152.299 156.725 C 152.232 153.356,152.177 156.000,152.177 162.600 M224.400 198.000 C 223.960 198.440,223.603 199.115,223.606 199.500 C 223.610 199.922,223.729 200.030,223.906 199.770 C 225.255 197.798,249.922 197.934,251.500 199.923 C 251.950 200.490,252.000 200.483,252.000 199.858 C 252.000 199.476,251.558 198.722,251.018 198.182 L 250.036 197.200 237.618 197.200 C 225.733 197.200,225.166 197.234,224.400 198.000 M324.400 198.000 C 323.960 198.440,323.603 199.115,323.606 199.500 C 323.610 199.922,323.729 200.030,323.906 199.770 C 325.255 197.798,349.922 197.934,351.500 199.923 C 351.950 200.490,352.000 200.483,352.000 199.858 C 352.000 199.476,351.558 198.722,351.018 198.182 L 350.036 197.200 337.618 197.200 C 325.733 197.200,325.166 197.234,324.400 198.000 M252.177 212.200 C 252.177 218.580,252.232 221.134,252.299 217.876 C 252.367 214.617,252.366 209.397,252.299 206.276 C 252.231 203.154,252.176 205.820,252.177 212.200 M352.177 212.400 C 352.177 218.890,352.232 221.545,352.299 218.300 C 352.366 215.055,352.366 209.745,352.299 206.500 C 352.232 203.255,352.177 205.910,352.177 212.400 M275.894 224.069 C 276.255 224.506,276.419 227.835,276.503 236.434 L 276.619 248.200 276.609 236.033 C 276.601 225.579,276.516 223.838,276.000 223.668 C 275.510 223.506,275.491 223.580,275.894 224.069 M297.994 224.406 C 296.914 225.486,296.920 247.697,298.000 247.905 C 298.523 248.006,298.583 246.732,298.469 237.937 C 298.338 227.927,298.639 224.680,299.770 223.906 C 300.030 223.729,299.922 223.610,299.500 223.606 C 299.115 223.603,298.437 223.963,297.994 224.406 M223.625 225.857 C 223.590 227.623,223.492 227.610,236.533 227.512 L 248.200 227.424 236.800 227.212 C 225.094 226.994,224.589 226.925,223.997 225.459 C 223.691 224.699,223.648 224.745,223.625 225.857 M350.957 225.864 L 350.115 227.000 338.757 227.200 L 327.400 227.400 327.200 238.739 L 327.000 250.077 325.800 251.037 L 324.600 251.996 325.686 251.998 C 327.492 252.001,327.600 251.270,327.600 239.026 L 327.600 227.600 339.124 227.600 C 351.479 227.600,352.217 227.487,351.938 225.642 C 351.802 224.740,351.789 224.743,350.957 225.864 M148.121 250.200 C 148.194 251.670,148.297 251.807,149.400 251.892 C 150.545 251.981,150.559 251.964,149.695 251.529 C 149.197 251.278,148.622 250.517,148.416 249.837 C 148.048 248.621,148.043 248.627,148.121 250.200 M248.121 250.200 C 248.194 251.670,248.297 251.807,249.400 251.892 C 250.545 251.981,250.559 251.964,249.695 251.529 C 249.197 251.278,248.622 250.517,248.416 249.837 C 248.048 248.621,248.043 248.627,248.121 250.200 M156.700 252.299 C 159.835 252.367,164.965 252.367,168.100 252.299 C 171.235 252.232,168.670 252.176,162.400 252.176 C 156.130 252.176,153.565 252.232,156.700 252.299 M261.700 252.300 L 272.400 252.413 272.400 262.384 L 272.400 272.355 260.861 272.477 C 248.207 272.612,247.979 272.656,248.025 274.949 C 248.047 275.993,248.105 276.068,248.378 275.400 C 249.341 273.047,249.534 273.010,261.641 272.877 L 272.800 272.754 272.800 262.377 L 272.800 252.000 261.900 252.093 L 251.000 252.186 261.700 252.300 M301.738 252.252 C 301.403 252.389,301.386 252.840,301.677 253.893 C 301.909 254.733,302.019 258.943,301.939 263.890 C 301.804 272.166,301.825 272.441,302.600 272.616 C 303.040 272.716,308.139 272.843,313.931 272.899 L 324.463 273.000 325.831 274.494 L 327.200 275.988 327.205 286.494 C 327.208 292.272,327.308 297.360,327.426 297.800 C 327.633 298.574,327.987 298.601,338.120 298.618 C 348.812 298.636,350.619 298.813,351.500 299.923 C 351.950 300.490,352.000 300.483,352.000 299.858 C 352.000 299.476,351.558 298.722,351.018 298.182 L 350.036 297.200 338.835 297.200 L 327.635 297.200 327.517 285.614 C 327.411 275.122,327.333 273.960,326.686 273.314 C 326.041 272.668,324.870 272.588,314.386 272.473 L 302.800 272.345 302.800 262.379 L 302.800 252.413 313.500 252.300 L 324.200 252.186 313.200 252.125 C 307.150 252.091,301.992 252.148,301.738 252.252 M276.589 276.900 C 276.486 277.175,276.357 282.612,276.301 288.981 L 276.200 300.562 274.200 301.298 C 272.421 301.952,271.102 302.021,262.282 301.917 C 252.647 301.803,252.359 301.823,252.170 302.600 C 252.063 303.040,252.029 308.080,252.095 313.800 L 252.214 324.200 252.307 313.500 L 252.400 302.800 263.700 302.794 C 269.915 302.791,275.198 302.656,275.440 302.494 C 276.664 301.676,276.800 300.293,276.800 288.626 L 276.800 276.800 287.000 276.800 L 297.200 276.800 297.200 288.167 C 297.200 299.515,297.294 300.800,298.128 300.800 C 298.371 300.800,298.937 301.245,299.385 301.790 L 300.200 302.779 311.900 302.890 C 321.053 302.976,323.601 302.891,323.600 302.500 C 323.600 302.225,323.195 301.990,322.700 301.977 C 322.205 301.965,317.210 301.920,311.600 301.877 C 297.355 301.769,298.400 302.893,298.400 287.686 C 298.400 277.756,298.361 277.207,297.626 276.814 C 296.434 276.176,276.828 276.256,276.589 276.900 M224.400 298.000 C 223.960 298.440,223.603 299.115,223.606 299.500 C 223.610 299.922,223.729 300.030,223.906 299.770 C 224.674 298.648,227.903 298.349,237.908 298.474 C 247.302 298.591,248.001 298.552,248.000 297.900 C 248.000 296.740,225.565 296.835,224.400 298.000 M352.177 312.400 C 352.177 318.890,352.232 321.545,352.299 318.300 C 352.366 315.055,352.366 309.745,352.299 306.500 C 352.232 303.255,352.177 305.910,352.177 312.400 M223.625 325.857 C 223.590 327.624,223.393 327.600,237.659 327.600 C 251.338 327.600,252.001 327.511,251.998 325.686 L 251.996 324.600 251.036 325.800 L 250.077 327.000 238.043 327.117 C 225.418 327.239,224.679 327.153,224.003 325.474 C 223.687 324.690,223.648 324.730,223.625 325.857 M323.625 325.857 C 323.590 327.624,323.393 327.600,337.659 327.600 C 351.338 327.600,352.001 327.511,351.998 325.686 L 351.996 324.600 351.036 325.800 L 350.077 327.000 338.043 327.117 C 325.418 327.239,324.679 327.153,324.003 325.474 C 323.687 324.690,323.648 324.730,323.625 325.857 " stroke="none" fill="#08d4b4" fill-rule="evenodd"></path>
  </g>
</svg>